<svg width="44" height="30" viewBox="0 0 44 30" fill="none" xmlns="http://www.w3.org/2000/svg">
<path d="M23.2261 16.239L16.5611 27.6538L9.89623 16.239H23.2261ZM25.0116 15.2188H8.10352L16.5611 29.6728L25.0116 15.2188Z" fill="white"/>
<path d="M34.8141 2.0404L41.479 13.4552H28.1492L34.8141 2.0404ZM34.8141 0L26.3564 14.454H43.2717L34.8141 0Z" fill="white"/>
<path d="M0 0L7.09143 12.7846L14.8406 0.321025L0 0Z" fill="#4CAF4F"/>
<path d="M16.5612 1.12109L23.9997 13.8344H9.1084L16.5612 1.12109Z" fill="#4CAF4F"/>
<path d="M25.9151 16.6094L33.3607 29.6723H18.1152L25.6837 16.6094H25.9151Z" fill="#4CAF4F"/>
<path d="M27.5273 15.8164L34.8139 28.6795L42.2017 15.8164H27.5273Z" fill="#4CAF4F"/>
</svg>
