<svg width="48" height="48" viewBox="0 0 48 48" fill="none" xmlns="http://www.w3.org/2000/svg">
<path d="M24.9036 18.3953L24.9033 23.4182V23.4182V23.4766C24.9033 23.5932 24.9184 23.7062 24.9466 23.8139L24.8988 24.6317L24.8962 24.6756C24.885 24.8673 24.8103 25.0349 24.6842 25.1612L26.1268 24.2163C26.0445 24.2028 25.9624 24.1736 25.8806 24.1291L25.4844 23.9133V23.4766V23.4182V18.3953M24.9036 18.3953V18.3953L25.194 18.3953L25.4844 18.3953M24.9036 18.3953C24.9036 18.5557 25.0338 18.6857 25.194 18.6857C25.3544 18.6857 25.4844 18.5554 25.4844 18.3953M24.9036 18.3953H25.194H25.4844M19.2833 17.9463L19.2833 17.9463L19.2833 17.9463ZM19.2833 17.9463C19.0703 18.3174 18.5586 18.4559 18.1849 18.2413L19.2833 17.9463ZM17.8522 18.819L17.8516 18.8186C17.5772 18.6603 17.3794 18.4008 17.2976 18.0968L17.2974 18.0963L17.2974 18.0962L17.297 18.0947C17.2304 17.8442 17.2473 17.5821 17.3431 17.3446V17.15C17.1722 17.445 17.1265 17.7892 17.2149 18.1184C17.3028 18.4473 17.5141 18.7222 17.8095 18.8935L17.8522 18.819ZM25.0957 25.5724L25.1558 25.6324L25.0957 25.5724L25.095 25.5731C24.8442 25.8234 24.5077 25.9615 24.1545 25.9615C24.1545 25.9615 24.1545 25.9615 24.1545 25.9615C23.6743 25.9615 23.2532 25.7064 23.0194 25.3244C22.9954 25.3367 22.9711 25.3485 22.9465 25.36L25.0957 25.5724ZM17.9195 17.485C17.8377 17.6267 17.8166 17.7881 17.8587 17.9454C17.8587 17.9454 17.8588 17.9455 17.8588 17.9455L17.8588 17.9457L17.859 17.9463C17.9007 18.1026 17.9992 18.2322 18.142 18.3156C18.142 18.3157 18.1421 18.3157 18.1421 18.3157L17.9195 17.485Z" fill="#4CAF4F" stroke="#4CAF4F" stroke-width="1.33333"/>
<path d="M16.1249 30.7917C15.9463 30.8992 15.7154 30.8412 15.6087 30.6629C15.5017 30.4848 15.5597 30.2536 15.7376 30.1467L16.1249 30.7917ZM11.7465 26.427C11.7611 26.4006 11.7748 26.376 11.7875 26.3531C11.8388 26.2608 11.8735 26.1983 11.8874 26.1732L11.9632 26.2131C11.9164 26.2975 11.8704 26.3802 11.8254 26.4614C11.799 26.4515 11.7726 26.4401 11.7465 26.427ZM22.155 28.7211C22.3072 28.6296 22.4146 28.485 22.4575 28.3132C22.5004 28.1417 22.4738 27.9634 22.3826 27.8112L22.155 28.7211Z" fill="#4CAF4F" stroke="#4CAF4F" stroke-width="1.33333"/>
<path d="M27.852 28.0937C27.758 28.0354 27.6725 27.9664 27.5968 27.8884L26.8775 27.512L26.8775 27.512L26.8374 27.491C26.7236 27.4315 26.6076 27.4032 26.4957 27.403L27.852 28.0937ZM26.171 26.8624C26.1711 26.8623 26.1712 26.8623 26.1713 26.8623L26.2267 27.0845L26.2267 27.0846L26.3119 27.426L26.3118 27.426L26.171 26.8624ZM30.3865 33.786C30.3863 33.7859 30.3861 33.7858 30.386 33.7858L30.3865 33.786ZM25.8443 30.1876L25.8456 30.1884L25.8443 30.1876Z" fill="#4CAF4F" stroke="#4CAF4F" stroke-width="1.33333"/>
</svg>
