<svg width="66" height="56" viewBox="0 0 66 56" fill="none" xmlns="http://www.w3.org/2000/svg">
<path d="M65.5 38C65.5 47.9411 57.4411 56 47.5 56L20.5 56C17.7386 56 15.5 53.7614 15.5 51L15.5 17C15.5 11.4772 19.9772 7 25.5 7L60.5 7C63.2614 7 65.5 9.23858 65.5 12L65.5 38Z" fill="#E8F5E9"/>
<path d="M27.4163 19.0106C27.1042 19.0106 26.8506 18.7574 26.8506 18.445V17.4836C26.8506 17.1716 27.1038 16.918 27.4163 16.918C27.7283 16.918 27.9819 17.1712 27.9819 17.4836V18.445C27.9819 18.7574 27.7283 19.0106 27.4163 19.0106Z" fill="#103E13"/>
<path d="M25.0383 19.0106C24.7263 19.0106 24.4727 18.7574 24.4727 18.445V17.4836C24.4727 17.1716 24.7259 16.918 25.0383 16.918C25.3504 16.918 25.604 17.1712 25.604 17.4836V18.445C25.6036 18.7574 25.3508 19.0106 25.0383 19.0106Z" fill="#103E13"/>
<path d="M22.6604 19.0106C22.3484 19.0106 22.0947 18.7574 22.0947 18.445V17.4836C22.0947 17.1716 22.348 16.918 22.6604 16.918C22.9724 16.918 23.2261 17.1712 23.2261 17.4836V18.445C23.2261 18.7574 22.9728 19.0106 22.6604 19.0106Z" fill="#103E13"/>
<path d="M27.4163 22.9438C27.1042 22.9438 26.8506 22.6906 26.8506 22.3782V21.4172C26.8506 21.1052 27.1038 20.8516 27.4163 20.8516C27.7283 20.8516 27.9819 21.1048 27.9819 21.4172V22.3782C27.9819 22.6906 27.7283 22.9438 27.4163 22.9438Z" fill="#103E13"/>
<path d="M25.0383 22.9438C24.7263 22.9438 24.4727 22.6906 24.4727 22.3782V21.4172C24.4727 21.1052 24.7259 20.8516 25.0383 20.8516C25.3504 20.8516 25.604 21.1048 25.604 21.4172V22.3782C25.6036 22.6906 25.3508 22.9438 25.0383 22.9438Z" fill="#103E13"/>
<path d="M22.6604 22.9438C22.3484 22.9438 22.0947 22.6906 22.0947 22.3782V21.4172C22.0947 21.1052 22.348 20.8516 22.6604 20.8516C22.9724 20.8516 23.2261 21.1048 23.2261 21.4172V22.3782C23.2261 22.6906 22.9728 22.9438 22.6604 22.9438Z" fill="#103E13"/>
<path d="M27.4163 26.8739C27.1042 26.8739 26.8506 26.6207 26.8506 26.3082V25.3469C26.8506 25.0349 27.1038 24.7812 27.4163 24.7812C27.7283 24.7812 27.9819 25.0345 27.9819 25.3469V26.3082C27.9819 26.6207 27.7283 26.8739 27.4163 26.8739Z" fill="#103E13"/>
<path d="M25.0383 26.8739C24.7263 26.8739 24.4727 26.6207 24.4727 26.3082V25.3469C24.4727 25.0349 24.7259 24.7812 25.0383 24.7812C25.3504 24.7812 25.604 25.0345 25.604 25.3469V26.3082C25.6036 26.6207 25.3508 26.8739 25.0383 26.8739Z" fill="#103E13"/>
<path d="M22.6604 26.8739C22.3484 26.8739 22.0947 26.6207 22.0947 26.3082V25.3469C22.0947 25.0349 22.348 24.7812 22.6604 24.7812C22.9724 24.7812 23.2261 25.0345 23.2261 25.3469V26.3082C23.2261 26.6207 22.9728 26.8739 22.6604 26.8739Z" fill="#103E13"/>
<path d="M27.4163 30.8036C27.1042 30.8036 26.8506 30.5504 26.8506 30.2379V29.2766C26.8506 28.9646 27.1038 28.7109 27.4163 28.7109C27.7283 28.7109 27.9819 28.9642 27.9819 29.2766V30.2379C27.9819 30.5504 27.7283 30.8036 27.4163 30.8036Z" fill="#103E13"/>
<path d="M25.0383 30.8036C24.7263 30.8036 24.4727 30.5504 24.4727 30.2379V29.2766C24.4727 28.9646 24.7259 28.7109 25.0383 28.7109C25.3504 28.7109 25.604 28.9642 25.604 29.2766V30.2379C25.6036 30.5504 25.3508 30.8036 25.0383 30.8036Z" fill="#103E13"/>
<path d="M22.6604 30.8036C22.3484 30.8036 22.0947 30.5504 22.0947 30.2379V29.2766C22.0947 28.9646 22.348 28.7109 22.6604 28.7109C22.9724 28.7109 23.2261 28.9642 23.2261 29.2766V30.2379C23.2261 30.5504 22.9728 30.8036 22.6604 30.8036Z" fill="#103E13"/>
<path d="M27.4163 34.7368C27.1042 34.7368 26.8506 34.4836 26.8506 34.1711V33.2102C26.8506 32.8982 27.1038 32.6445 27.4163 32.6445C27.7283 32.6445 27.9819 32.8978 27.9819 33.2102V34.1711C27.9819 34.4832 27.7283 34.7368 27.4163 34.7368Z" fill="#103E13"/>
<path d="M25.0383 34.7368C24.7263 34.7368 24.4727 34.4836 24.4727 34.1711V33.2102C24.4727 32.8982 24.7259 32.6445 25.0383 32.6445C25.3504 32.6445 25.604 32.8978 25.604 33.2102V34.1711C25.6036 34.4832 25.3508 34.7368 25.0383 34.7368Z" fill="#103E13"/>
<path d="M22.6604 34.7368C22.3484 34.7368 22.0947 34.4836 22.0947 34.1711L22.0951 33.2102C22.0951 32.8982 22.3484 32.6445 22.6608 32.6445C22.9728 32.6445 23.2265 32.8978 23.2265 33.2102V34.1711C23.2261 34.4832 22.9728 34.7368 22.6604 34.7368Z" fill="#103E13"/>
<path d="M6.50047 38.6471C6.50047 38.9592 6.75372 39.2128 7.06615 39.2128H41.5139C41.8259 39.2128 42.0796 38.9596 42.0796 38.6471C42.0796 38.3351 41.8263 38.0815 41.5139 38.0815H40.4682V21.8402C40.4682 21.5281 40.215 21.2745 39.9025 21.2745L30.6668 21.2749V9.56576C30.6668 9.36774 30.5635 9.18471 30.3946 9.08214C30.2262 8.97919 30.0156 8.97287 29.8404 9.06399L19.3401 14.531C19.1527 14.6284 19.0359 14.8217 19.0359 15.0327V25.2604H8.87388C8.56186 25.2604 8.3082 25.5137 8.3082 25.8261V38.0816H7.06489C6.75287 38.0812 6.5 38.3344 6.5 38.6468L6.50047 38.6471ZM30.667 29.8422H39.3374V38.0819L30.667 38.0815V29.8422ZM30.667 25.9113H39.3374V28.7113L30.667 28.7109V25.9113ZM30.667 22.4056H39.3374V24.7808H30.667V22.4056ZM20.1667 15.3762L29.5353 10.4982V38.081H20.1667V15.3762ZM12.2359 33.5635C12.2359 32.3895 13.166 31.4341 14.3096 31.4341C15.4531 31.4341 16.3837 32.3891 16.3837 33.5635V38.0817H12.2359V33.5635ZM9.43952 26.3916H19.0358V38.0815H17.515V33.5633C17.515 31.7657 16.0776 30.303 14.3096 30.303C12.5424 30.303 11.105 31.7653 11.105 33.5633V38.0815H9.43952V26.3916Z" fill="#103E13"/>
</svg>
