<svg width="36" height="24" viewBox="0 0 36 24" fill="none" xmlns="http://www.w3.org/2000/svg">
<path d="M19.5414 13.1338L14.1505 22.3667L8.75961 13.1338H19.5414ZM20.9856 12.3086H7.30957L14.1505 23.9998L20.9856 12.3086Z" fill="#263238"/>
<path d="M28.9142 1.65038L34.3051 10.8833H23.5233L28.9142 1.65038ZM28.9142 0L22.0732 11.6912H35.7552L28.9142 0Z" fill="#263238"/>
<path d="M0.754883 0L6.49079 10.3409L12.7587 0.259661L0.754883 0Z" fill="#4CAF4F"/>
<path d="M14.1503 0.90625L20.1669 11.1894H8.12207L14.1503 0.90625Z" fill="#4CAF4F"/>
<path d="M21.7161 13.4336L27.7385 23.9995H15.4072L21.529 13.4336H21.7161Z" fill="#4CAF4F"/>
<path d="M23.0205 12.793L28.9143 23.1973L34.8899 12.793H23.0205Z" fill="#4CAF4F"/>
</svg>
