<svg width="48" height="48" viewBox="0 0 48 48" fill="none" xmlns="http://www.w3.org/2000/svg">
<g clip-path="url(#clip0_771_992)">
<path d="M44.9963 13.411C44.9963 13.4448 44.9963 13.4871 44.9875 13.5125C44.9434 13.8421 44.9434 14.1718 44.9698 14.51C44.9875 14.5945 45.0051 14.679 45.0756 14.7467C45.19 14.8735 45.3662 14.8481 45.4367 14.6959C45.4719 14.6199 45.4719 14.5438 45.4543 14.4677C45.3662 14.1465 45.3486 13.8083 45.3398 13.4786C45.3398 13.4617 45.3398 13.4364 45.3398 13.411C45.4367 13.4026 45.5248 13.3941 45.604 13.3941C45.6657 13.3857 45.7185 13.3772 45.7626 13.3518C45.8946 13.2842 45.8946 13.1405 45.7537 13.0729C45.7009 13.0475 45.6304 13.0391 45.5688 13.0391C45.3486 13.0475 45.1284 13.0475 44.9082 13.0475C44.829 13.0475 44.7497 13.056 44.6704 13.0644C44.6263 13.0729 44.5735 13.0729 44.5383 13.0982C44.4766 13.1236 44.4414 13.1659 44.4414 13.225C44.4502 13.2842 44.4766 13.318 44.5383 13.3434C44.5735 13.3688 44.6175 13.3772 44.6616 13.3772C44.7672 13.3857 44.8818 13.4026 44.9963 13.411ZM47.4184 13.7999C47.4184 13.8083 47.4272 13.8168 47.4272 13.8168C47.4624 14.045 47.4977 14.2648 47.5241 14.4846C47.5329 14.5607 47.5417 14.6283 47.5946 14.6875C47.709 14.8312 47.8852 14.8143 47.9645 14.6621C47.9997 14.586 48.0085 14.51 47.9909 14.4254C47.9381 14.1718 47.9116 13.9182 47.8588 13.6731C47.8235 13.5209 47.7795 13.3772 47.7355 13.242C47.709 13.1574 47.6474 13.0982 47.5417 13.0898C47.436 13.0729 47.3567 13.1236 47.3127 13.1997C47.2599 13.2673 47.2158 13.3349 47.1806 13.411C47.1189 13.5463 47.0661 13.6815 46.9957 13.8083C46.9868 13.8421 46.978 13.8675 46.9604 13.8929C46.9516 13.876 46.9428 13.8675 46.9428 13.8675C46.8283 13.6562 46.7226 13.4448 46.6081 13.242C46.5904 13.225 46.5817 13.2081 46.5729 13.1912C46.52 13.1151 46.4584 13.0729 46.3615 13.0729C46.2734 13.0813 46.2029 13.1321 46.1589 13.2081C46.1413 13.242 46.1413 13.2673 46.1325 13.3011C46.0972 13.5716 46.0532 13.8421 46.018 14.1127C46.0003 14.2648 45.9915 14.417 45.9915 14.5691C45.9827 14.603 45.9915 14.6452 46.0091 14.679C46.0268 14.7467 46.0796 14.7889 46.1501 14.7974C46.2381 14.8058 46.2998 14.7805 46.3262 14.7128C46.3526 14.6621 46.3615 14.6199 46.3703 14.5776C46.4055 14.4254 46.4319 14.2817 46.4584 14.138C46.476 14.0535 46.4848 13.9859 46.5112 13.8929C46.5288 13.9267 46.5464 13.952 46.5641 13.9774C46.6433 14.0788 46.7226 14.1803 46.8195 14.2648C46.9164 14.3324 46.9957 14.324 47.0749 14.2479C47.0925 14.231 47.1013 14.2226 47.1189 14.2056C47.1982 14.0873 47.2951 13.9689 47.3743 13.8506C47.392 13.8337 47.4008 13.8168 47.4184 13.7999Z" fill="#3A3B7B"/>
<path d="M27.1247 13.5778C27.0634 13.7385 27.0518 13.8542 27.08 13.9504C27.1113 14.0813 27.1923 14.1241 27.3023 14.0908C28.3368 13.8453 30.6054 14.5422 31.4453 14.7364C31.6433 14.7772 31.8045 14.5318 31.6693 14.3118C31.472 14.0987 29.2045 13.1864 28.3393 13.1367C28.0002 13.1183 27.3939 13.0348 27.1247 13.5778Z" fill="#3A3B7B"/>
<path d="M35.9906 10.6241C36.1008 10.6852 36.1625 10.7435 36.1929 10.8085C36.2382 10.8939 36.2143 10.953 36.1382 10.9832C35.4543 11.3035 34.5443 12.6826 34.177 13.1582C34.088 13.2676 33.8826 13.2041 33.8516 13.0241C33.8579 12.8207 34.6646 11.3241 35.1148 10.9164C35.2917 10.7573 35.584 10.445 35.9906 10.6241Z" fill="#3A3B7B"/>
<path d="M30.544 9.94639C30.6764 9.85057 30.8141 9.81699 30.8844 9.87926C31.9162 10.7262 32.4633 12.0673 32.8021 13.2951C32.8149 13.3237 32.8157 13.3647 32.8055 13.4076C32.8012 13.4442 32.7734 13.4828 32.7291 13.5127C32.6819 13.5458 32.6412 13.5558 32.622 13.5274C32.1698 12.937 29.5871 10.6402 30.544 9.94639Z" fill="#3A3B7B"/>
<path d="M8.69524 24.6285C8.94253 24.4518 9.21137 24.3047 9.49586 24.1905C9.7935 24.1089 10.1107 24.1224 10.3997 24.2291C10.6885 24.3359 10.9334 24.53 11.0971 24.7822C11.2435 25.0337 11.3008 25.3241 11.2604 25.6096C11.2199 25.8951 11.084 26.1602 10.8729 26.3651C10.7093 26.5312 10.5235 26.6759 10.3205 26.7954C9.41582 27.3564 8.50308 27.8866 7.59039 28.4475C7.40363 28.5879 7.20551 28.7139 6.99793 28.8241C6.68217 28.9752 6.32132 29.0157 5.97776 28.9385C5.6342 28.8614 5.32955 28.6713 5.11648 28.4014C4.95719 28.2103 4.82277 28.0013 4.71616 27.779C3.8515 26.0347 2.95481 24.2981 2.12217 22.523C1.73787 21.7546 1.42563 20.8709 1.12139 20.018C0.989767 19.7702 0.964063 19.4829 1.04976 19.2171C1.13545 18.9514 1.32577 18.7282 1.58025 18.5951C1.83473 18.462 2.13327 18.4294 2.4124 18.5043C2.69152 18.5791 2.92921 18.7556 3.0749 18.996C3.52271 19.5672 3.91911 20.1739 4.25981 20.8095C5.12448 22.3463 5.94912 23.8831 6.78176 25.3738C6.83024 25.4562 6.8837 25.5357 6.94188 25.612C7.56859 25.3591 8.15803 25.0285 8.69524 24.6285Z" fill="#3A3B7B"/>
<path d="M17.6352 24.0953C15.6577 26.316 12.3432 25.755 10.6779 22.8965C9.49295 20.8679 9.28481 17.5176 11.8628 15.4045C12.4133 14.9621 13.0716 14.6607 13.7763 14.5285C14.6403 14.4096 15.5213 14.5559 16.2935 14.9465C17.0656 15.337 17.6894 15.9519 18.0756 16.7031C19.4847 19.1621 19.2845 22.2972 17.6352 24.0953ZM16.8346 18.9161C16.6245 18.3119 16.2031 17.796 15.6417 17.4561C15.324 17.2388 14.938 17.1332 14.5487 17.157C14.1594 17.1808 13.7905 17.3325 13.5041 17.5868C12.3592 18.5627 12.119 20.8756 12.9516 22.2511C13.0578 22.4754 13.2136 22.6747 13.4084 22.8351C13.6032 22.9955 13.8321 23.1132 14.0792 23.1797C14.3263 23.2464 14.5855 23.2603 14.8389 23.2207C15.0922 23.1811 15.3334 23.0888 15.5457 22.9503C16.1663 22.4885 16.6216 21.8526 16.8483 21.131C17.075 20.4094 17.0618 19.6379 16.8107 18.9239L16.8346 18.9161Z" fill="#3A3B7B"/>
<path d="M25.706 19.8834C25.5036 19.9252 25.2944 19.9277 25.0909 19.8907C24.8875 19.8538 24.6937 19.7782 24.5212 19.6683C24.3702 19.5854 24.2402 19.4714 24.1405 19.3345C24.041 19.1976 23.9742 19.0413 23.9451 18.8767C23.916 18.7121 23.9253 18.5434 23.9723 18.3826C24.0193 18.2219 24.1029 18.0731 24.2169 17.947C24.4157 17.6937 24.6978 17.5123 25.0175 17.4322C25.8523 17.1997 26.7117 17.0579 27.5795 17.0096C27.7702 16.9883 27.9634 17.0038 28.1477 17.0551C28.332 17.1065 28.5038 17.1927 28.653 17.3087C28.8021 17.4246 28.9257 17.568 29.0163 17.7304C29.1069 17.8928 29.1628 18.071 29.1807 18.2544C29.4309 19.1554 29.4583 20.1001 29.2608 21.013C28.5403 23.9637 26.0583 24.978 23.2722 24.0329C22.4901 23.7802 21.8044 23.3093 21.3027 22.6805C20.6335 21.9232 20.1591 21.0257 19.9176 20.0602C19.7219 19.2004 19.7433 18.3083 19.9801 17.4581C20.2169 16.6079 20.6621 15.8245 21.2786 15.1731C21.8637 14.4651 22.6231 13.9079 23.4884 13.5517C24.0351 13.2625 24.6749 13.1802 25.2818 13.3212C25.4194 13.3578 25.5443 13.429 25.6436 13.5275C25.743 13.6261 25.813 13.7483 25.8465 13.8816C25.88 14.0149 25.8757 14.1543 25.8341 14.2855C25.7925 14.4166 25.7152 14.5347 25.61 14.6275C25.4101 14.8012 25.1929 14.9556 24.9615 15.0885C24.2497 15.5236 23.6303 16.0842 23.1361 16.7406C22.8121 17.1654 22.589 17.6532 22.4825 18.1696C22.3759 18.686 22.3886 19.2185 22.5196 19.7298C22.7012 20.4269 23.1041 21.0525 23.6725 21.5202C25.4338 23.057 27.7236 21.5739 27.3233 19.4762C26.7389 19.6145 26.2265 19.7605 25.706 19.8834Z" fill="#3A3B7B"/>
<path d="M36.4656 24.2151C33.8637 25.7519 30.9014 24.2151 30.2528 20.9878C29.7805 18.6825 30.6772 15.4552 33.8156 14.2257C34.4834 13.9698 35.2077 13.8799 35.9212 13.9645C36.7786 14.1151 37.5651 14.5202 38.1698 15.1226C38.7745 15.7251 39.167 16.4945 39.2918 17.3224C39.8202 20.0656 38.6193 22.9933 36.4656 24.2151ZM37.3704 19.0437C37.3696 18.4053 37.1343 17.7876 36.7059 17.2994C36.4769 16.9974 36.1458 16.781 35.7691 16.6871C35.3924 16.5932 34.9935 16.6276 34.6402 16.7846C33.2312 17.3685 32.2384 19.4893 32.5987 21.0493C32.6262 21.2941 32.7091 21.5301 32.8415 21.741C32.974 21.9518 33.1529 22.1324 33.3657 22.27C33.5784 22.4075 33.8199 22.4989 34.0732 22.5376C34.3266 22.5762 34.5857 22.5613 34.8324 22.4939C35.5772 22.2441 36.2221 21.7774 36.6771 21.1589C37.1321 20.5403 37.3745 19.8008 37.3704 19.0437Z" fill="#3A3B7B"/>
<path d="M41.9237 24.8629C41.8844 25.1441 41.7304 25.3988 41.4954 25.5711C41.2604 25.7432 40.9637 25.8188 40.6707 25.7811C40.3777 25.7434 40.1123 25.5955 39.9329 25.37C39.7534 25.1445 39.6747 24.8598 39.714 24.5785C39.7533 24.2973 39.9074 24.0426 40.1423 23.8703C40.3773 23.6981 40.6739 23.6226 40.9669 23.6603C41.26 23.698 41.5254 23.8458 41.7048 24.0714C41.8842 24.2969 41.963 24.5816 41.9237 24.8629ZM41.2271 14.4969C41.3794 14.2737 41.6028 14.1038 41.864 14.0124C42.1251 13.921 42.41 13.913 42.6763 13.9898C42.9469 14.0548 43.186 14.207 43.3537 14.4211C43.5213 14.6351 43.6071 14.8979 43.597 15.1655C43.5617 15.5946 43.4948 16.0209 43.3968 16.441C43.1326 17.8626 42.8764 19.2841 42.5962 20.6904C42.4681 21.2513 42.3 21.7892 42.1158 22.3578C42.0518 22.5356 41.9447 22.6962 41.8036 22.8265C41.7159 22.9246 41.6038 22.9998 41.4777 23.0452C41.3516 23.0907 41.2156 23.1049 41.0824 23.0865C40.9491 23.0681 40.8227 23.0177 40.7151 22.9401C40.6075 22.8624 40.522 22.7599 40.4666 22.6421C40.3714 22.4308 40.3197 22.2038 40.3144 21.9736C40.3144 21.0208 40.3144 20.0603 40.3785 19.0997C40.4873 17.7289 40.7014 16.3677 41.019 15.0271C41.0564 14.8475 41.1268 14.6758 41.2271 14.52V14.4969Z" fill="#3A3B7B"/>
<path fill-rule="evenodd" clip-rule="evenodd" d="M5.31239 31.0376C5.21786 31.2401 5.19193 31.4659 5.23813 31.6832C5.26886 31.9697 5.33636 32.2514 5.43909 32.522C5.56734 32.8534 5.71086 33.1811 5.88782 33.585C5.92852 33.678 5.97105 33.775 6.01555 33.8771C6.25419 34.4243 6.55362 35.1235 6.95302 36.1356C7.06607 36.4231 7.16645 36.7129 7.26754 37.0048C7.30838 37.1227 7.34936 37.241 7.39131 37.3596C7.54169 37.7811 7.80043 38.1598 8.14339 38.46C8.28903 38.625 8.4822 38.7452 8.6988 38.8053C8.91963 38.8666 9.1545 38.8627 9.37298 38.7942C9.59146 38.7255 9.78336 38.5954 9.92375 38.4207C10.0614 38.2494 10.1432 38.043 10.1592 37.8273C10.2485 37.4072 10.218 36.9716 10.0708 36.5666C9.83721 35.8942 9.57112 35.2207 9.26428 34.562L9.26287 34.5591C8.75809 33.5285 8.24498 32.5051 7.7076 31.4813L7.70357 31.4741C7.54626 31.2074 7.34181 30.9689 7.09943 30.7695C6.94207 30.5914 6.72502 30.4714 6.48532 30.43C6.24051 30.3877 5.98803 30.4303 5.77294 30.5502C5.56947 30.6617 5.40818 30.8323 5.31239 31.0376Z" fill="#3A3B7B"/>
<path fill-rule="evenodd" clip-rule="evenodd" d="M13.0224 28.5004C12.2309 28.3037 11.4043 28.275 10.6002 28.4165C9.97737 28.4753 9.36482 28.6132 8.93947 28.8863C8.72314 29.0253 8.54823 29.2038 8.45094 29.4307C8.35311 29.6588 8.34063 29.9197 8.42079 30.2103C8.56717 30.7427 8.75725 31.2604 8.94666 31.7764L8.97734 31.86L8.97808 31.8618C9.54839 33.3608 10.1241 34.8548 10.7051 36.3436C10.7729 36.5783 10.8687 36.8046 10.9906 37.0181L10.9929 37.022C11.154 37.2872 11.3606 37.5245 11.604 37.7237C11.7257 37.8332 11.8762 37.909 12.0395 37.9429C12.2043 37.977 12.3757 37.9672 12.535 37.9142C12.6944 37.8612 12.8356 37.7673 12.9431 37.6426C13.049 37.52 13.1182 37.3722 13.1437 37.2149C13.2487 36.7877 13.2151 36.3399 13.0472 35.9315C12.9948 35.7941 12.9537 35.6536 12.9104 35.5058C12.896 35.4565 12.8814 35.4063 12.8659 35.3553C14.1958 34.8563 15.6109 34.1854 16.1085 32.6247C16.3033 32.0854 16.3195 31.5013 16.1549 30.9527C15.9901 30.4035 15.6521 29.9167 15.1873 29.5593C14.5548 29.0591 13.8159 28.6976 13.0224 28.5004ZM10.8285 30.4148C10.8547 30.4075 10.881 30.4008 10.9075 30.3945C11.7733 30.2639 12.6591 30.438 13.4019 30.8846C13.7292 31.1031 13.8633 31.3458 13.8863 31.5794C13.9101 31.8199 13.8189 32.0805 13.6359 32.331C13.2901 32.8042 12.6589 33.183 12.0888 33.2536C11.6732 32.335 11.2511 31.3792 10.8285 30.4148Z" fill="#3A3B7B"/>
<path d="M18.2989 26.8158C19.2414 26.398 20.409 26.3259 21.3226 26.6196C21.5527 26.6839 21.7523 26.8231 21.8873 27.0132C22.0215 27.2022 22.0834 27.4299 22.0627 27.6575C22.0613 27.8053 22.0235 27.9507 21.9524 28.0819C21.8801 28.2154 21.7752 28.3302 21.6469 28.4167C21.5185 28.5031 21.3703 28.5587 21.2149 28.5785C21.0594 28.5984 20.9012 28.582 20.7537 28.5308L20.7425 28.5269L20.732 28.5216C20.6565 28.4837 20.5763 28.4552 20.4934 28.4366L20.4882 28.4355C19.8455 28.2716 19.2393 28.5431 19.0178 28.8767C18.9122 29.0357 18.8991 29.1963 18.9871 29.3423C19.0813 29.4987 19.3123 29.6742 19.7798 29.7993C19.9084 29.8332 20.0402 29.8659 20.1739 29.8991C20.5436 29.991 20.9278 30.0864 21.2993 30.2187L21.3007 30.2192C23.0146 30.8451 23.6528 32.1413 23.4343 33.3605C23.2181 34.5662 22.169 35.6635 20.5914 35.9223C20.0173 36.0444 19.4199 36.0206 18.8582 35.8533C18.2952 35.6854 17.7876 35.3791 17.386 34.9647L17.3756 34.9539C17.2488 34.7977 17.1635 34.6143 17.1257 34.4197C17.091 34.244 17.1093 34.0625 17.1784 33.8965C17.2472 33.7315 17.3635 33.5886 17.5136 33.4846C17.6721 33.3666 17.8632 33.2958 18.0632 33.281C18.2625 33.2663 18.462 33.3079 18.6371 33.4006C18.8119 33.4817 18.9745 33.5851 19.1205 33.7081L19.1232 33.7103C19.3815 33.937 19.6939 33.996 19.9935 33.9413C20.2974 33.8858 20.5833 33.7132 20.7671 33.4842C20.9497 33.2566 21.023 32.9862 20.936 32.7238C20.8485 32.4594 20.5852 32.1632 20.0068 31.9156C19.8556 31.854 19.6988 31.8043 19.5357 31.7559C19.4917 31.7429 19.447 31.7299 19.4017 31.7167C19.2812 31.6816 19.1571 31.6454 19.0354 31.6055C18.9516 31.5781 18.8685 31.5521 18.7862 31.5263C18.5612 31.456 18.3418 31.3875 18.1307 31.2955C17.6713 31.1454 17.2743 30.8571 16.999 30.4733C16.7225 30.088 16.5834 29.6272 16.6023 29.1598C16.6038 28.0207 17.3513 27.2359 18.2989 26.8158Z" fill="#3A3B7B"/>
<path d="M30.2489 26.6975C30.0661 26.6118 29.864 26.5711 29.6608 26.5791C29.4576 26.5871 29.2597 26.6436 29.0849 26.7434C28.9112 26.8425 28.7658 26.9814 28.6616 27.1475C28.566 27.2874 28.4999 27.4439 28.4669 27.6082C28.4339 27.7724 28.4347 27.9411 28.4692 28.1049C28.5032 28.3154 28.541 28.5201 28.5782 28.722C28.6399 29.0561 28.7 29.3827 28.7396 29.7157L28.741 29.7241C28.8312 30.2463 28.8784 30.7744 28.8827 31.3037L28.8831 31.3112C28.9139 31.8827 28.711 32.4432 28.3178 32.8736L28.3116 32.8812C28.1837 33.0385 28.0127 33.1586 27.8176 33.228C27.6226 33.2974 27.4114 33.3134 27.2075 33.2741C27.0036 33.2348 26.8151 33.1419 26.6631 33.0056C26.5111 32.8694 26.4015 32.6947 26.3467 32.5022C26.2299 32.0964 26.1623 31.679 26.1451 31.2584L26.3447 28.2092C26.3476 28.1694 26.351 28.1286 26.3544 28.0873C26.362 27.9947 26.3698 27.9004 26.373 27.8124C26.3777 27.683 26.3737 27.5498 26.3422 27.4238C26.3101 27.295 26.2489 27.1725 26.1404 27.0682C26.033 26.9649 25.8879 26.8887 25.7055 26.8368C25.3754 26.7451 25.0964 26.748 24.8639 26.8427C24.6312 26.9375 24.4718 27.1133 24.359 27.3164C24.2471 27.5179 24.1752 27.7563 24.1208 27.9952C24.0805 28.1724 24.048 28.3585 24.0172 28.5356C24.0065 28.5966 23.9961 28.6565 23.9856 28.7147L23.9853 28.7164C23.8204 29.6876 23.7713 30.6738 23.839 31.6557C23.8516 32.1863 23.9669 32.7101 24.1791 33.2003C24.4185 33.8327 24.852 34.3807 25.4225 34.7719C25.9942 35.1638 26.6765 35.3798 27.3789 35.3912C28.0814 35.4026 28.7709 35.2089 29.3561 34.8358C29.9404 34.4632 30.3932 33.9292 30.6546 33.3045C31.0203 32.5086 31.1921 31.6431 31.1566 30.7739C31.1352 30.1393 31.0992 29.4999 31.0634 28.8636C31.0458 28.5516 31.0283 28.2401 31.0126 27.9306C31.0046 27.6203 30.898 27.3197 30.7069 27.0691C30.5887 26.9108 30.4313 26.783 30.2489 26.6975Z" fill="#3A3B7B"/>
<path d="M36.7175 31.4767C36.699 31.4994 36.6794 31.5228 36.659 31.5471C36.5104 30.724 36.3726 29.9012 36.2346 29.0771C36.1851 28.7815 36.1354 28.4845 36.0853 28.1885L36.0797 28.1555L36.0614 28.1269C36.027 28.0732 36.0236 28.0205 36.0236 27.9082V27.8952L36.0215 27.8824C35.9842 27.6505 35.8748 27.4346 35.7079 27.2631C35.5413 27.0921 35.3251 26.973 35.0872 26.9214C34.8497 26.8652 34.6001 26.8775 34.3699 26.957C34.1403 27.0363 33.9401 27.1788 33.7944 27.3667C33.6733 27.5108 33.574 27.6707 33.4996 27.8415C33.3307 28.2096 33.1604 28.5785 32.9896 28.9485L32.9866 28.9549C32.5602 29.8785 32.1309 30.8082 31.7141 31.7453L31.7128 31.7484C31.4569 32.356 31.2457 32.9962 31.0352 33.6345C30.9932 33.7619 30.9511 33.8892 30.9088 34.0162C30.8328 34.2176 30.7995 34.4316 30.8109 34.6455C30.7971 34.8369 30.8448 35.0279 30.9478 35.1926C31.0528 35.3607 31.2102 35.4929 31.3976 35.5708C31.5962 35.6543 31.8182 35.6721 32.0286 35.6212C32.2385 35.5704 32.4248 35.4541 32.5584 35.2906C32.7289 35.0893 32.8756 34.8697 32.9953 34.637C33.3484 33.9438 33.6859 33.2421 34.0218 32.5435C34.1518 32.2733 34.2781 32.0312 34.4217 31.7677C34.4316 31.8002 34.4417 31.8319 34.4521 31.8636C34.6027 32.5 34.8569 33.1095 35.2053 33.6699C35.2712 33.7886 35.3631 33.8923 35.4745 33.974C35.5873 34.0566 35.7175 34.1146 35.856 34.1441C35.9946 34.1735 36.1381 34.1737 36.2767 34.1445C36.4151 34.1154 36.5457 34.0573 36.6585 33.975L36.8819 33.8145L38.6158 32.4129L38.5132 33.04C38.3725 33.902 38.2328 34.7568 38.0844 35.6119C37.9874 35.9909 37.9875 36.3867 38.0849 36.7656C38.127 36.9788 38.2344 37.175 38.3934 37.3294C38.5538 37.485 38.7591 37.5907 38.9828 37.6329C39.2065 37.675 39.4383 37.6517 39.648 37.5658C39.8547 37.4813 40.0305 37.3398 40.1533 37.1596C40.4392 36.8191 40.6171 36.407 40.666 35.9722C40.7396 35.3582 40.8227 34.7358 40.9059 34.1136C41.0017 33.3965 41.0976 32.6795 41.1785 31.9763L41.1787 31.9742C41.2566 31.2044 41.2943 30.4315 41.2917 29.6581C41.3087 29.4137 41.2453 29.1703 41.1102 28.9622C40.9747 28.7534 40.7739 28.591 40.5366 28.4982C40.2898 28.3905 40.0135 28.3617 39.7484 28.4161C39.485 28.4702 39.2466 28.6034 39.0677 28.7965C38.7479 29.0804 38.4479 29.3841 38.1696 29.7058L38.1677 29.708C37.8639 30.0714 37.5621 30.4418 37.2624 30.8099C37.0801 31.0337 36.8983 31.2569 36.7175 31.4767Z" fill="#3A3B7B"/>
</g>
<defs>
<clipPath id="clip0_771_992">
<rect width="47" height="29" fill="white" transform="translate(1 9.84766)"/>
</clipPath>
</defs>
</svg>
