<svg width="442" height="434" viewBox="0 0 442 434" fill="none" xmlns="http://www.w3.org/2000/svg">
<path d="M376.369 433.132C376.369 433.277 304.601 433.401 216.1 433.401C127.599 433.401 55.7998 433.277 55.7998 433.132C55.7998 432.987 127.558 432.863 216.1 432.863C304.642 432.863 376.369 432.998 376.369 433.132Z" fill="#263238"/>
<path d="M306.441 306.604C290.473 295.452 286.856 274.751 287.486 256.137C287.589 253.036 287.248 249.75 288.726 247.032C290.204 244.313 293.656 242.443 296.436 243.745C298.741 244.83 299.744 247.517 301.036 249.739C302.759 252.699 305.286 255.111 308.322 256.695C310.296 257.729 312.746 258.349 314.699 257.274C317.386 255.796 317.696 252.106 317.675 249.006C317.675 243.239 317.641 237.478 317.572 231.725C317.386 228.636 317.7 225.537 318.502 222.547C319.463 219.612 321.603 216.894 324.528 216.067C327.453 215.24 331.101 216.946 331.762 219.964C331.876 221.242 331.907 222.526 331.855 223.808C331.938 225.1 332.538 226.516 333.747 226.909C334.956 227.302 336.217 226.402 337.147 225.493C340.33 222.392 342.501 218.351 344.516 214.362C346.531 210.372 348.506 206.269 351.399 202.869C354.293 199.469 358.293 196.771 362.768 196.513C367.243 196.254 371.905 199.004 373.021 203.344C374.137 207.685 371.605 212.119 368.887 215.643C364.785 220.875 359.95 225.487 354.531 229.338C353.473 229.915 352.629 230.817 352.123 231.911C351.451 233.978 353.404 236.045 355.44 236.696C357.745 237.461 360.246 237.223 362.675 237.513C365.104 237.802 367.688 238.856 368.608 241.13C369.868 244.293 367.223 247.6 364.629 249.77C359.42 254.111 353.505 257.527 347.141 259.868C344.868 260.695 342.48 261.429 340.64 263.02C338.801 264.612 337.705 267.392 338.811 269.573C339.917 271.754 342.759 272.446 345.147 272.002C347.534 271.557 349.653 270.276 351.926 269.418C356.174 267.816 361.652 268.105 364.329 271.774C365.158 273.038 365.683 274.477 365.862 275.978C366.042 277.479 365.871 279.001 365.362 280.425C364.328 283.258 362.736 285.855 360.68 288.063C353.911 296.15 345.116 302.296 335.194 305.87C325.344 309.281 316.218 310.211 306.431 306.625" fill="#4CAF4F"/>
<path d="M368.473 199.066C368.473 199.066 368.38 199.17 368.173 199.356L367.253 200.172C366.447 200.896 365.259 201.95 363.76 203.345C359.511 207.29 355.566 211.55 351.957 216.089C349.652 218.951 347.265 222.197 344.722 225.721C342.18 229.245 339.555 233.049 336.95 237.09C334.174 241.351 331.631 245.761 329.333 250.298C328.134 252.665 327.08 255.135 325.995 257.657L322.791 265.357C318.568 275.055 314.89 284.982 311.774 295.091C309.264 303.362 307.534 311.85 306.606 320.444C306.005 326.243 305.908 332.084 306.317 337.9C306.482 339.967 306.637 341.548 306.782 342.623C306.844 343.14 306.885 343.553 306.926 343.853V344.277C306.882 344.142 306.851 344.004 306.833 343.863C306.782 343.564 306.72 343.161 306.637 342.644C306.451 341.61 306.255 339.977 306.069 337.91C305.57 332.083 305.604 326.223 306.172 320.402C307.042 311.772 308.734 303.245 311.226 294.936C314.316 284.799 317.984 274.847 322.212 265.129L325.499 257.461C326.584 254.949 327.649 252.458 328.858 250.081C331.171 245.53 333.735 241.11 336.537 236.842C339.183 232.708 341.849 228.966 344.361 225.473C346.872 221.98 349.301 218.714 351.595 215.861C355.24 211.335 359.239 207.105 363.553 203.211C365.083 201.836 366.302 200.803 367.129 200.11L368.09 199.335C368.208 199.233 368.336 199.142 368.473 199.066Z" fill="#263238"/>
<path d="M328.992 250.059C328.847 249.633 328.746 249.193 328.693 248.747C328.527 247.889 328.341 246.679 328.124 245.108C327.68 242.008 327.225 237.76 326.739 233.058C326.254 228.355 325.706 224.097 325.251 221.027C325.013 219.498 324.807 218.268 324.662 217.41C324.549 216.971 324.49 216.52 324.486 216.066C324.664 216.48 324.793 216.914 324.869 217.358C325.096 218.206 325.354 219.425 325.644 220.965C326.233 224.066 326.812 228.283 327.297 232.996C327.783 237.708 328.197 241.843 328.517 245.057C328.672 246.504 328.806 247.734 328.91 248.716C328.99 249.159 329.018 249.61 328.992 250.059Z" fill="#263238"/>
<path d="M368.763 242.64C368.26 242.75 367.748 242.812 367.233 242.826C366.2 242.919 364.732 243.043 362.913 243.25C359.275 243.643 354.273 244.366 348.785 245.4C343.297 246.433 338.367 247.601 334.822 248.5C333.055 248.955 331.628 249.369 330.688 249.648C330.186 249.826 329.666 249.951 329.138 250.02C329.615 249.78 330.113 249.582 330.626 249.431C331.597 249.09 333.003 248.614 334.76 248.108C338.284 247.074 343.214 245.844 348.723 244.79C353.389 243.898 358.098 243.242 362.831 242.826C364.66 242.671 366.138 242.609 367.171 242.589C367.702 242.553 368.236 242.57 368.763 242.64Z" fill="#263238"/>
<path d="M311.733 294.211C311.623 294.061 311.533 293.898 311.464 293.725L310.782 292.289C310.193 291.038 309.397 289.188 308.446 286.925C306.524 282.377 304.075 276.011 301.47 268.941C298.866 261.872 296.468 255.505 294.649 250.906C293.76 248.674 293.026 246.844 292.479 245.48L291.9 244.002C291.819 243.832 291.764 243.651 291.734 243.465C291.845 243.614 291.935 243.778 292.003 243.951L292.685 245.387C293.264 246.638 294.07 248.488 295.021 250.751C296.943 255.299 299.393 261.665 301.997 268.735C304.602 275.804 307 282.17 308.819 286.77C309.707 289.002 310.441 290.831 310.979 292.196C311.216 292.785 311.413 293.229 311.568 293.674C311.648 293.844 311.704 294.025 311.733 294.211Z" fill="#263238"/>
<path d="M364.526 277.191C364.36 277.286 364.183 277.359 363.998 277.408L362.469 277.925L356.815 279.755C352.041 281.305 345.447 283.517 338.212 285.956C330.977 288.395 324.352 290.565 319.546 292.012C317.149 292.746 315.195 293.304 313.841 293.676L312.281 294.079C312.099 294.137 311.912 294.175 311.723 294.193C311.888 294.098 312.065 294.025 312.25 293.976L313.779 293.459L319.433 291.63C324.208 290.079 330.802 287.868 338.036 285.429C345.271 282.989 351.885 280.819 356.691 279.372C359.099 278.638 361.043 278.08 362.407 277.708L363.967 277.305C364.149 277.247 364.336 277.209 364.526 277.191Z" fill="#263238"/>
<path d="M342.986 26.4875L337.663 28.3892L335.379 21.4335C331.183 8.60747 317.809 1.79653 305.521 6.12701C293.232 10.4575 286.69 24.5238 290.886 37.3498L293.17 44.3055L287.827 46.2175C285.789 47.0078 284.135 48.5529 283.207 50.5316C282.279 52.5103 282.15 54.7704 282.845 56.8422L297.656 102.1C297.963 103.126 298.473 104.079 299.157 104.904C299.84 105.728 300.682 106.407 301.632 106.899C302.583 107.392 303.623 107.689 304.69 107.771C305.758 107.854 306.831 107.722 307.846 107.382L363.005 87.6516C365.07 86.8627 366.748 85.3039 367.687 83.3031C368.625 81.3023 368.752 79.0155 368.039 76.9236L353.218 31.6654C352.903 30.6427 352.384 29.694 351.694 28.8759C351.004 28.0579 350.156 27.3872 349.201 26.9039C348.246 26.4207 347.204 26.1347 346.136 26.0632C345.068 25.9916 343.997 26.1359 342.986 26.4875ZM300.942 33.7222C299.811 30.3872 300.014 26.7438 301.509 23.5552C303.004 20.3667 305.675 17.8804 308.962 16.6173C310.586 16.0619 312.304 15.8392 314.015 15.9624C315.727 16.0857 317.395 16.5524 318.922 17.3346C320.449 18.1169 321.803 19.1987 322.903 20.5156C324.002 21.8324 324.826 23.3573 325.323 24.9992L327.597 31.9548L303.216 40.6778L300.942 33.7222ZM331.948 73.885L335.731 85.4398C335.8 85.6715 335.778 85.9211 335.668 86.1366C335.558 86.3522 335.37 86.5172 335.142 86.5974L329.84 88.4887C329.629 88.5472 329.403 88.5218 329.21 88.4178C329.018 88.3137 328.873 88.1391 328.806 87.9306L324.992 76.4275C322.889 76.3129 320.872 75.5586 319.209 74.2657C317.547 72.9727 316.319 71.2028 315.691 69.1928C314.792 66.5355 314.956 63.6335 316.148 61.0944C317.341 58.5553 319.469 56.576 322.088 55.5709C323.381 55.1291 324.75 54.9522 326.113 55.0506C327.476 55.149 328.805 55.5209 330.021 56.1439C331.237 56.7669 332.316 57.6284 333.192 58.677C334.068 59.7257 334.724 60.9399 335.121 62.2475C335.786 64.2893 335.841 66.4807 335.279 68.5532C334.717 70.6258 333.563 72.4895 331.958 73.916L331.948 73.885Z" fill="#4CAF4F"/>
<path d="M337.426 28.2654C337.426 28.4101 327.556 32.1204 315.278 36.5336C302.999 40.9468 292.984 44.4918 292.933 44.3884C292.881 44.2851 302.803 40.5437 315.092 36.1202C327.38 31.6967 337.374 28.131 337.426 28.2654Z" fill="#263238"/>
<path d="M349.146 30.168C349.192 30.2577 349.23 30.351 349.26 30.447C349.342 30.6537 349.435 30.9224 349.559 31.2532C349.828 32.0076 350.2 33.0515 350.665 34.3537L354.634 45.9086C356.288 50.8075 358.262 56.6159 360.453 63.0651C361.486 66.3 362.706 69.6693 363.843 73.2143C364.451 75.0411 364.714 76.9653 364.618 78.8884C364.53 79.8885 364.246 80.8615 363.781 81.7513C363.284 82.6381 362.621 83.4207 361.827 84.056C360.231 85.2216 358.458 86.1252 356.577 86.7329L351.254 88.6449L341.178 92.2519L324.114 98.329L312.59 102.38L309.49 103.414L308.663 103.683C308.574 103.722 308.48 103.746 308.384 103.755C308.384 103.755 308.466 103.755 308.642 103.631L309.448 103.311L312.549 102.143L324.011 97.926L341.043 91.7248L351.099 88.0868L356.422 86.1644C358.25 85.5815 359.971 84.7054 361.517 83.5703C362.256 82.9807 362.873 82.2543 363.336 81.4309C363.774 80.608 364.038 79.7039 364.112 78.7747C364.207 76.9218 363.954 75.0674 363.367 73.3074C362.251 69.7934 361.073 66.3931 360.008 63.1581C357.859 56.6986 355.874 50.8695 354.303 45.9706C352.732 41.0717 351.409 37.1339 350.5 34.3641C350.066 33.0102 349.735 31.956 349.466 31.1912L349.218 30.3643C349.187 30.3017 349.163 30.2359 349.146 30.168Z" fill="#263238"/>
<path d="M320.042 15.9162C320.042 15.9162 319.494 15.6475 318.481 15.234C317.038 14.6793 315.511 14.3719 313.965 14.3245C311.674 14.246 309.393 14.6766 307.288 15.5854C304.729 16.7171 302.54 18.5476 300.974 20.8668C299.397 23.1793 298.55 25.9122 298.545 28.7112C298.566 31.0054 298.914 33.2848 299.578 35.4808C300.116 37.3618 300.674 38.8605 301.046 39.9043C301.265 40.4345 301.445 40.9804 301.583 41.5373C301.29 41.0416 301.044 40.519 300.849 39.9767C300.426 38.9431 299.816 37.4755 299.217 35.5842C298.481 33.3651 298.08 31.0486 298.028 28.7112C298 25.8064 298.866 22.9633 300.508 20.567C302.13 18.1632 304.408 16.2761 307.071 15.1307C309.242 14.2169 311.593 13.8138 313.944 13.9525C315.524 14.033 317.075 14.4007 318.523 15.0377C318.91 15.2162 319.283 15.4235 319.639 15.6578C319.786 15.7224 319.922 15.8096 320.042 15.9162Z" fill="#263238"/>
<path d="M320.517 56.3572C320.682 56.2572 320.855 56.1708 321.034 56.0988C321.551 55.8653 322.087 55.6752 322.636 55.5303C323.507 55.2732 324.405 55.1206 325.312 55.0756C326.546 55.0093 327.781 55.1957 328.94 55.6234C331.586 56.5535 334.015 59.251 335.214 62.858C335.789 64.7937 335.789 66.8548 335.214 68.7905C334.576 70.8914 333.433 72.8041 331.886 74.3612L331.948 74.0821C333.322 77.8545 334.821 81.9473 336.371 86.2157L336.464 86.4741L336.206 86.5671L333.839 87.3526L328.671 89.0786L328.413 89.1613L328.33 88.9029C326.914 84.6241 325.364 80.6347 324.196 76.7176L324.424 76.8933C322.403 76.7255 320.477 75.9671 318.884 74.7126C317.443 73.6027 316.261 72.1919 315.422 70.5785C314.664 69.1477 314.287 67.5462 314.326 65.9276C314.374 64.2734 314.787 62.6502 315.536 61.1743C316.284 59.6985 317.35 58.4064 318.657 57.3907C319.194 56.9541 319.798 56.6053 320.445 56.3572C319.861 56.7035 319.295 57.0795 318.75 57.4837C317.314 58.6979 316.215 60.2602 315.556 62.0209C314.991 63.3486 314.726 64.785 314.781 66.2271C314.837 67.6691 315.211 69.081 315.876 70.3614C316.702 71.9136 317.855 73.2677 319.256 74.3302C320.775 75.5226 322.612 76.2415 324.537 76.3972H324.713L324.765 76.5523C325.902 80.397 327.462 84.4174 328.899 88.7169L328.558 88.5515L333.725 86.8255L336.082 86.0297L335.916 86.3811C334.376 82.1126 332.888 78.0095 331.524 74.2372V74.0821L331.648 73.9581C333.15 72.4656 334.271 70.6326 334.914 68.6148C335.462 66.7631 335.462 64.7923 334.914 62.9407C333.787 59.4681 331.462 56.8326 328.94 55.9024C327.824 55.472 326.632 55.2716 325.436 55.3133C324.544 55.3337 323.656 55.4551 322.791 55.675C321.251 56.0574 320.527 56.4088 320.517 56.3572Z" fill="#263238"/>
<path d="M288.571 354.78L185.332 354.304C179.37 354.271 173.665 351.874 169.47 347.638C165.274 343.401 162.932 337.673 162.956 331.711L164.052 72.906C164.064 69.9522 164.658 67.0298 165.8 64.3058C166.943 61.5818 168.611 59.1097 170.709 57.0307C172.807 54.9516 175.294 53.3065 178.029 52.1893C180.763 51.0722 183.691 50.5049 186.645 50.5198L289.873 50.9952C295.835 51.0253 301.542 53.4205 305.739 57.6546C309.936 61.8888 312.281 67.6158 312.259 73.5778L311.164 332.373C311.152 335.328 310.558 338.251 309.416 340.976C308.274 343.701 306.606 346.175 304.508 348.255C302.41 350.336 299.923 351.983 297.189 353.103C294.454 354.222 291.526 354.792 288.571 354.78Z" fill="#455A64"/>
<path d="M289.718 59.8946H269.709C269.056 59.9067 268.412 60.0474 267.814 60.3084C267.215 60.5695 266.674 60.9459 266.221 61.4162C265.768 61.8865 265.412 62.4414 265.174 63.0493C264.935 63.6572 264.819 64.3061 264.831 64.9589V68.5866C264.843 69.239 264.727 69.8874 264.488 70.4946C264.25 71.1019 263.894 71.6561 263.44 72.1256C262.987 72.5951 262.446 72.9705 261.847 73.2305C261.249 73.4904 260.605 73.6298 259.953 73.6405L220.947 73.4648C219.628 73.4297 218.376 72.8722 217.468 71.9149C216.559 70.9577 216.067 69.6788 216.1 68.3592V64.7315C216.134 63.4137 215.643 62.1364 214.737 61.1794C213.83 60.2224 212.581 59.6638 211.263 59.6259H204.225L186.707 59.5432C182.54 59.5184 178.533 61.1457 175.564 64.0688C172.594 66.9919 170.904 70.9725 170.863 75.1392L169.829 327.754C169.82 329.821 170.217 331.87 171 333.783C171.782 335.696 172.933 337.437 174.388 338.905C175.843 340.374 177.573 341.541 179.479 342.341C181.385 343.141 183.43 343.557 185.498 343.567L288.519 344.042C290.588 344.052 292.638 343.654 294.553 342.871C296.467 342.088 298.209 340.936 299.678 339.48C301.148 338.024 302.316 336.293 303.116 334.386C303.916 332.478 304.333 330.432 304.343 328.364L305.376 75.7489C305.401 71.5705 303.766 67.5533 300.829 64.5803C297.893 61.6074 293.897 59.922 289.718 59.8946Z" fill="white"/>
<path d="M275.859 310.337L199.254 310.006C198.458 310.006 197.817 309.138 197.827 308.084L197.91 288.043C197.91 287.01 198.561 286.121 199.357 286.121L275.962 286.472C276.403 286.549 276.797 286.792 277.063 287.152C277.329 287.513 277.445 287.961 277.388 288.405L277.316 308.425C277.316 309.489 276.654 310.347 275.859 310.337Z" fill="#4CAF4F"/>
<path d="M222.544 300.127C222.121 300.127 221.715 300.059 221.324 299.924C220.94 299.783 220.641 299.604 220.43 299.387L220.666 298.923C220.866 299.119 221.135 299.284 221.471 299.419C221.812 299.55 222.17 299.615 222.544 299.615C222.902 299.615 223.192 299.571 223.414 299.485C223.642 299.392 223.807 299.27 223.91 299.119C224.019 298.967 224.073 298.799 224.073 298.614C224.073 298.392 224.008 298.213 223.878 298.078C223.753 297.942 223.588 297.837 223.382 297.761C223.176 297.679 222.948 297.609 222.699 297.549C222.449 297.49 222.2 297.427 221.951 297.362C221.701 297.292 221.471 297.2 221.259 297.086C221.053 296.972 220.885 296.823 220.755 296.639C220.631 296.449 220.568 296.202 220.568 295.899C220.568 295.617 220.641 295.359 220.788 295.126C220.94 294.888 221.17 294.698 221.479 294.557C221.788 294.411 222.184 294.337 222.666 294.337C222.986 294.337 223.303 294.384 223.617 294.476C223.932 294.562 224.203 294.684 224.431 294.842L224.227 295.321C223.983 295.159 223.723 295.039 223.447 294.964C223.176 294.888 222.913 294.85 222.658 294.85C222.316 294.85 222.035 294.896 221.812 294.988C221.59 295.08 221.425 295.205 221.316 295.362C221.213 295.514 221.162 295.687 221.162 295.882C221.162 296.105 221.224 296.284 221.349 296.419C221.479 296.555 221.647 296.66 221.853 296.736C222.064 296.812 222.295 296.88 222.544 296.939C222.794 296.999 223.04 297.064 223.284 297.135C223.533 297.205 223.761 297.297 223.967 297.411C224.179 297.519 224.347 297.666 224.471 297.85C224.601 298.034 224.666 298.276 224.666 298.574C224.666 298.85 224.591 299.108 224.439 299.346C224.287 299.579 224.054 299.769 223.739 299.915C223.43 300.056 223.032 300.127 222.544 300.127ZM225.977 300.078V294.386H226.579V300.078H225.977ZM228.431 300.078V294.386H228.927L232.855 299.33H232.594V294.386H233.188V300.078H232.692L228.773 295.134H229.033V300.078H228.431ZM237.542 300.127C237.108 300.127 236.707 300.056 236.339 299.915C235.975 299.769 235.658 299.566 235.387 299.306C235.122 299.045 234.913 298.739 234.761 298.387C234.615 298.034 234.542 297.65 234.542 297.232C234.542 296.815 234.615 296.43 234.761 296.078C234.913 295.725 235.124 295.419 235.395 295.159C235.666 294.898 235.984 294.698 236.347 294.557C236.715 294.411 237.117 294.337 237.55 294.337C237.984 294.337 238.38 294.405 238.737 294.541C239.101 294.676 239.41 294.882 239.664 295.159L239.29 295.541C239.052 295.302 238.789 295.132 238.502 295.029C238.214 294.926 237.905 294.874 237.575 294.874C237.222 294.874 236.897 294.934 236.599 295.053C236.306 295.167 236.049 295.332 235.826 295.549C235.61 295.76 235.439 296.01 235.314 296.297C235.195 296.579 235.135 296.891 235.135 297.232C235.135 297.568 235.195 297.88 235.314 298.167C235.439 298.455 235.61 298.707 235.826 298.923C236.049 299.135 236.306 299.3 236.599 299.419C236.897 299.533 237.22 299.59 237.566 299.59C237.892 299.59 238.198 299.541 238.485 299.444C238.778 299.346 239.046 299.181 239.29 298.948L239.632 299.403C239.361 299.642 239.044 299.823 238.68 299.948C238.317 300.067 237.938 300.127 237.542 300.127ZM239.054 299.33V297.232H239.632V299.403L239.054 299.33ZM245.756 300.127C245.03 300.127 244.458 299.918 244.04 299.501C243.623 299.083 243.414 298.465 243.414 297.647V294.386H244.016V297.622C244.016 298.295 244.168 298.791 244.471 299.111C244.775 299.43 245.203 299.59 245.756 299.59C246.314 299.59 246.745 299.43 247.049 299.111C247.352 298.791 247.504 298.295 247.504 297.622V294.386H248.09V297.647C248.09 298.465 247.881 299.083 247.464 299.501C247.052 299.918 246.482 300.127 245.756 300.127ZM249.903 300.078V294.386H252.033C252.516 294.386 252.93 294.465 253.277 294.622C253.624 294.774 253.89 294.996 254.074 295.289C254.264 295.576 254.359 295.926 254.359 296.338C254.359 296.739 254.264 297.086 254.074 297.379C253.89 297.666 253.624 297.888 253.277 298.045C252.93 298.203 252.516 298.281 252.033 298.281H250.236L250.505 297.997V300.078H249.903ZM250.505 298.045L250.236 297.753H252.017C252.586 297.753 253.017 297.631 253.31 297.387C253.608 297.137 253.757 296.788 253.757 296.338C253.757 295.882 253.608 295.53 253.31 295.281C253.017 295.031 252.586 294.907 252.017 294.907H250.236L250.505 294.622V298.045Z" fill="#E8E8E3"/>
<path d="M214.533 134.152L187.951 134.031L187.929 138.909L214.511 139.03L214.533 134.152Z" fill="#4CAF4F"/>
<path opacity="0.1" d="M214.533 134.152L187.951 134.031L187.929 138.909L214.511 139.03L214.533 134.152Z" fill="black"/>
<path d="M292.457 164.105C292.666 164.084 292.871 164.036 293.067 163.961C293.353 163.849 293.601 163.659 293.784 163.412C293.967 163.165 294.077 162.872 294.1 162.565C294.1 160.922 294.1 158.524 294.1 155.444C294.1 153.905 294.1 152.179 294.1 150.277C294.1 149.812 294.1 149.326 294.1 148.84C294.168 148.369 294.065 147.889 293.811 147.486C293.669 147.293 293.483 147.136 293.27 147.026C293.057 146.917 292.821 146.859 292.581 146.856H290.969H276.034L189.59 146.535C189.369 146.532 189.15 146.581 188.952 146.68C188.754 146.779 188.583 146.925 188.453 147.104C188.204 147.508 188.108 147.989 188.184 148.458C188.184 149.491 188.184 150.525 188.184 151.558C188.184 153.625 188.184 155.693 188.184 157.76C188.184 158.793 188.184 159.827 188.184 160.86C188.142 161.341 188.142 161.826 188.184 162.307C188.239 162.513 188.34 162.705 188.479 162.866C188.619 163.027 188.794 163.154 188.991 163.237C189.194 163.318 189.412 163.357 189.631 163.351H194.892L217.847 163.475L256.707 163.713L282.907 163.919L290.028 164.002H291.878C292.302 164.002 292.509 164.002 292.509 164.002H291.878H290.028H282.907H256.707L217.847 163.878L194.892 163.785H189.631C189.342 163.797 189.053 163.747 188.784 163.64C188.512 163.524 188.27 163.347 188.076 163.124C187.883 162.9 187.743 162.635 187.668 162.348C187.608 162.077 187.587 161.799 187.606 161.522V160.757C187.606 159.723 187.606 158.69 187.606 157.656C187.606 155.589 187.606 153.522 187.606 151.455C187.606 150.422 187.606 149.388 187.606 148.354C187.586 148.079 187.586 147.803 187.606 147.528C187.644 147.224 187.762 146.935 187.947 146.69C188.125 146.441 188.361 146.238 188.634 146.1C188.908 145.961 189.211 145.891 189.518 145.895L275.962 146.37L290.896 146.473H292.509C292.793 146.474 293.072 146.542 293.324 146.674C293.576 146.805 293.793 146.995 293.955 147.228C294.247 147.677 294.364 148.217 294.286 148.747C294.286 149.233 294.286 149.719 294.286 150.184C294.286 152.065 294.286 153.791 294.286 155.351C294.286 158.452 294.214 160.829 294.193 162.483C294.168 162.801 294.052 163.105 293.86 163.359C293.668 163.614 293.407 163.808 293.108 163.919C292.912 164.041 292.687 164.105 292.457 164.105Z" fill="#E0E0E0"/>
<path d="M244.554 151.723H195.937V156.281H244.554V151.723Z" fill="#4CAF4F"/>
<path opacity="0.2" d="M244.554 151.723H195.937V156.281H244.554V151.723Z" fill="white"/>
<path d="M214.353 178.656L187.771 178.535L187.748 183.413L214.33 183.534L214.353 178.656Z" fill="#4CAF4F"/>
<path opacity="0.1" d="M214.353 178.656L187.771 178.535L187.748 183.413L214.33 183.534L214.353 178.656Z" fill="black"/>
<path d="M291.785 208.609C291.994 208.583 292.201 208.545 292.405 208.495C292.694 208.403 292.959 208.25 293.184 208.047C293.409 207.844 293.587 207.595 293.707 207.317C293.87 206.9 293.934 206.45 293.893 206.004C293.893 205.508 293.893 204.971 293.893 204.371C293.893 203.172 293.893 201.808 293.893 200.237V193.674C293.943 193.199 293.838 192.721 293.594 192.31C293.339 191.889 292.938 191.576 292.467 191.432C291.952 191.34 291.428 191.312 290.907 191.349H276.034L189.89 191.028C189.426 191.03 188.979 191.199 188.631 191.505C188.283 191.811 188.058 192.233 187.998 192.692C187.998 193.674 187.998 194.76 187.998 195.793C187.998 197.86 187.998 199.927 187.998 201.994C187.998 203.028 187.998 204.061 187.998 205.095C187.96 205.578 187.981 206.064 188.06 206.542C188.189 206.961 188.455 207.325 188.815 207.575C189.197 207.818 189.645 207.933 190.096 207.906H191.533H194.52L217.392 208.02L256.118 208.257L282.225 208.464L289.325 208.547H282.225H256.118L217.371 208.505L194.499 208.423H190.003C189.444 208.456 188.89 208.307 188.422 207.999C187.952 207.673 187.609 207.195 187.451 206.645C187.358 206.12 187.33 205.585 187.368 205.053C187.368 204.02 187.368 202.986 187.368 201.953C187.368 199.886 187.368 197.819 187.368 195.752C187.368 194.718 187.368 193.685 187.368 192.651C187.443 192.06 187.731 191.517 188.179 191.123C188.626 190.729 189.201 190.512 189.797 190.512L275.941 190.987L290.814 191.101C291.367 191.067 291.923 191.105 292.467 191.215C293.004 191.39 293.457 191.758 293.738 192.248C294.006 192.703 294.122 193.232 294.069 193.757C294.069 194.243 294.069 194.718 294.069 195.194C294.069 197.064 294.069 198.78 294.069 200.361C294.069 201.943 294.069 203.276 294.069 204.495C294.069 205.084 294.069 205.632 294.069 206.139C294.107 206.601 294.032 207.065 293.852 207.493C293.718 207.778 293.524 208.031 293.283 208.234C293.042 208.437 292.76 208.586 292.457 208.671C292.231 208.689 292.004 208.668 291.785 208.609Z" fill="#E0E0E0"/>
<path d="M214.152 225.089L187.57 224.969L187.548 229.847L214.13 229.968L214.152 225.089Z" fill="#4CAF4F"/>
<path opacity="0.1" d="M214.152 225.089L187.57 224.969L187.548 229.847L214.13 229.968L214.152 225.089Z" fill="black"/>
<path d="M291.579 255.024C291.788 255 291.995 254.962 292.199 254.911C292.486 254.819 292.751 254.668 292.975 254.467C293.2 254.265 293.379 254.019 293.501 253.743C293.663 253.325 293.727 252.876 293.687 252.43C293.687 251.924 293.687 251.397 293.687 250.787C293.687 249.598 293.687 248.224 293.687 246.653V240.09C293.736 239.615 293.631 239.136 293.387 238.726C293.126 238.312 292.727 238.005 292.261 237.857C291.747 237.762 291.222 237.731 290.7 237.764H275.828L189.683 237.444C189.22 237.445 188.773 237.615 188.425 237.921C188.077 238.227 187.852 238.649 187.792 239.108C187.792 240.142 187.792 241.175 187.792 242.209C187.792 244.276 187.792 246.343 187.792 248.41C187.792 249.443 187.792 250.477 187.792 251.51C187.754 251.99 187.774 252.472 187.854 252.947C187.978 253.369 188.245 253.734 188.609 253.981C188.988 254.228 189.438 254.344 189.89 254.311H194.386L217.258 254.435L255.984 254.673L282.091 254.88L289.191 254.962H282.091H255.984L217.258 254.849L194.386 254.756H189.89C189.331 254.793 188.774 254.644 188.309 254.332C187.839 254.006 187.495 253.528 187.337 252.978C187.245 252.453 187.217 251.918 187.255 251.386C187.255 250.353 187.255 249.319 187.255 248.286C187.255 246.219 187.255 244.152 187.255 242.085C187.255 241.051 187.255 240.018 187.255 238.932C187.328 238.342 187.614 237.799 188.059 237.405C188.504 237.011 189.078 236.794 189.673 236.793L275.817 237.268L290.69 237.382C291.244 237.348 291.8 237.386 292.344 237.496C292.881 237.671 293.333 238.039 293.615 238.529C293.882 238.985 293.998 239.513 293.946 240.038C293.946 240.524 293.946 241.01 293.946 241.475C293.946 243.346 293.946 245.061 293.946 246.642C293.946 248.224 293.946 249.557 293.946 250.777C293.946 251.366 293.946 251.913 293.946 252.42C293.985 252.882 293.911 253.347 293.728 253.774C293.594 254.059 293.4 254.312 293.159 254.515C292.919 254.719 292.637 254.868 292.333 254.952C292.091 255.035 291.832 255.06 291.579 255.024Z" fill="#E0E0E0"/>
<path d="M243.515 197.514L194.898 197.293L194.878 201.851L243.494 202.071L243.515 197.514Z" fill="#4CAF4F"/>
<path opacity="0.2" d="M243.515 197.514L194.898 197.293L194.878 201.851L243.494 202.071L243.515 197.514Z" fill="white"/>
<path d="M199.295 246.59C199.265 247.005 199.113 247.403 198.859 247.733C198.604 248.063 198.258 248.312 197.864 248.447C197.47 248.583 197.045 248.6 196.641 248.496C196.237 248.392 195.873 248.171 195.593 247.862C195.314 247.553 195.131 247.169 195.068 246.757C195.004 246.345 195.063 245.923 195.238 245.545C195.412 245.166 195.693 244.847 196.047 244.626C196.401 244.406 196.812 244.294 197.228 244.305C197.804 244.338 198.344 244.595 198.731 245.023C199.118 245.451 199.321 246.013 199.295 246.59Z" fill="#4CAF4F"/>
<path d="M205.879 246.621C205.899 246.912 205.859 247.205 205.762 247.48C205.664 247.756 205.511 248.008 205.312 248.221C205.113 248.435 204.872 248.605 204.604 248.722C204.336 248.838 204.047 248.898 203.755 248.898C203.463 248.898 203.174 248.838 202.906 248.722C202.638 248.605 202.397 248.435 202.198 248.221C201.999 248.008 201.846 247.756 201.748 247.48C201.651 247.205 201.611 246.912 201.631 246.621C201.611 246.33 201.651 246.037 201.748 245.762C201.846 245.487 201.999 245.234 202.198 245.021C202.397 244.807 202.638 244.637 202.906 244.52C203.174 244.404 203.463 244.344 203.755 244.344C204.047 244.344 204.336 244.404 204.604 244.52C204.872 244.637 205.113 244.807 205.312 245.021C205.511 245.234 205.664 245.487 205.762 245.762C205.859 246.037 205.899 246.33 205.879 246.621Z" fill="#4CAF4F"/>
<path d="M212.472 246.652C212.442 247.068 212.29 247.465 212.035 247.796C211.781 248.126 211.435 248.374 211.041 248.51C210.647 248.645 210.222 248.662 209.818 248.558C209.414 248.454 209.05 248.234 208.77 247.925C208.49 247.616 208.308 247.231 208.244 246.819C208.181 246.407 208.24 245.986 208.414 245.607C208.588 245.228 208.87 244.909 209.224 244.689C209.578 244.468 209.988 244.357 210.405 244.368C210.98 244.403 211.518 244.661 211.905 245.088C212.291 245.515 212.495 246.077 212.472 246.652Z" fill="#4CAF4F"/>
<path d="M219.056 246.683C219.026 247.099 218.874 247.497 218.619 247.827C218.365 248.157 218.019 248.405 217.625 248.541C217.231 248.676 216.806 248.693 216.402 248.589C215.998 248.485 215.634 248.265 215.354 247.956C215.074 247.647 214.892 247.263 214.828 246.851C214.765 246.439 214.824 246.017 214.998 245.638C215.172 245.26 215.454 244.94 215.808 244.72C216.162 244.5 216.572 244.388 216.989 244.399C217.564 244.434 218.102 244.692 218.489 245.119C218.875 245.546 219.079 246.108 219.056 246.683Z" fill="#4CAF4F"/>
<path d="M225.64 246.704C225.611 247.121 225.461 247.519 225.208 247.851C224.955 248.183 224.609 248.433 224.215 248.57C223.821 248.707 223.395 248.725 222.991 248.622C222.586 248.519 222.221 248.3 221.94 247.991C221.66 247.682 221.476 247.298 221.412 246.885C221.348 246.473 221.407 246.051 221.58 245.671C221.754 245.292 222.036 244.972 222.39 244.752C222.744 244.531 223.156 244.419 223.573 244.43C224.146 244.465 224.683 244.722 225.069 245.147C225.455 245.572 225.66 246.131 225.64 246.704Z" fill="#4CAF4F"/>
<path d="M232.234 246.735C232.205 247.149 232.057 247.546 231.806 247.877C231.555 248.207 231.213 248.458 230.822 248.596C230.43 248.735 230.007 248.757 229.604 248.658C229.201 248.56 228.835 248.345 228.552 248.041C228.269 247.738 228.081 247.358 228.011 246.949C227.941 246.539 227.992 246.119 228.158 245.738C228.324 245.358 228.598 245.034 228.946 244.807C229.293 244.58 229.7 244.46 230.115 244.461C230.697 244.482 231.247 244.734 231.644 245.16C232.041 245.586 232.253 246.153 232.234 246.735Z" fill="#4CAF4F"/>
<path d="M238.817 246.766C238.838 247.057 238.798 247.349 238.7 247.625C238.603 247.9 238.45 248.152 238.251 248.366C238.051 248.58 237.81 248.75 237.542 248.866C237.275 248.983 236.986 249.043 236.694 249.043C236.401 249.043 236.112 248.983 235.845 248.866C235.577 248.75 235.336 248.58 235.137 248.366C234.937 248.152 234.784 247.9 234.687 247.625C234.589 247.349 234.549 247.057 234.57 246.766C234.549 246.474 234.589 246.182 234.687 245.906C234.784 245.631 234.937 245.379 235.137 245.165C235.336 244.952 235.577 244.781 235.845 244.665C236.112 244.548 236.401 244.488 236.694 244.488C236.986 244.488 237.275 244.548 237.542 244.665C237.81 244.781 238.051 244.952 238.251 245.165C238.45 245.379 238.603 245.631 238.7 245.906C238.798 246.182 238.838 246.474 238.817 246.766Z" fill="#4CAF4F"/>
<path d="M245.401 246.797C245.372 247.211 245.224 247.608 244.973 247.939C244.722 248.27 244.38 248.52 243.989 248.659C243.597 248.798 243.174 248.819 242.771 248.721C242.368 248.622 242.002 248.408 241.719 248.104C241.436 247.8 241.248 247.42 241.178 247.011C241.108 246.602 241.159 246.181 241.325 245.801C241.491 245.42 241.765 245.097 242.113 244.87C242.46 244.643 242.867 244.522 243.282 244.523C243.864 244.545 244.414 244.796 244.811 245.223C245.208 245.649 245.42 246.215 245.401 246.797Z" fill="#4CAF4F"/>
<path d="M251.985 246.829C251.956 247.246 251.806 247.644 251.553 247.976C251.299 248.308 250.954 248.558 250.56 248.695C250.166 248.832 249.74 248.85 249.336 248.747C248.931 248.644 248.566 248.425 248.285 248.116C248.004 247.807 247.821 247.423 247.757 247.01C247.693 246.598 247.751 246.176 247.925 245.796C248.099 245.417 248.381 245.097 248.735 244.877C249.089 244.656 249.5 244.544 249.918 244.555C250.491 244.59 251.027 244.847 251.413 245.272C251.8 245.697 252.005 246.256 251.985 246.829Z" fill="#4CAF4F"/>
<g opacity="0.2">
<path d="M199.295 246.59C199.265 247.005 199.113 247.403 198.859 247.733C198.604 248.063 198.258 248.312 197.864 248.447C197.47 248.583 197.045 248.6 196.641 248.496C196.237 248.392 195.873 248.171 195.593 247.862C195.314 247.553 195.131 247.169 195.068 246.757C195.004 246.345 195.063 245.923 195.238 245.545C195.412 245.166 195.693 244.847 196.047 244.626C196.401 244.406 196.812 244.294 197.228 244.305C197.804 244.338 198.344 244.595 198.731 245.023C199.118 245.451 199.321 246.013 199.295 246.59Z" fill="white"/>
<path d="M205.879 246.621C205.899 246.912 205.859 247.205 205.762 247.48C205.664 247.756 205.511 248.008 205.312 248.221C205.113 248.435 204.872 248.605 204.604 248.722C204.336 248.838 204.047 248.898 203.755 248.898C203.463 248.898 203.174 248.838 202.906 248.722C202.638 248.605 202.397 248.435 202.198 248.221C201.999 248.008 201.846 247.756 201.748 247.48C201.651 247.205 201.611 246.912 201.631 246.621C201.611 246.33 201.651 246.037 201.748 245.762C201.846 245.487 201.999 245.234 202.198 245.021C202.397 244.807 202.638 244.637 202.906 244.52C203.174 244.404 203.463 244.344 203.755 244.344C204.047 244.344 204.336 244.404 204.604 244.52C204.872 244.637 205.113 244.807 205.312 245.021C205.511 245.234 205.664 245.487 205.762 245.762C205.859 246.037 205.899 246.33 205.879 246.621Z" fill="white"/>
<path d="M212.473 246.652C212.443 247.068 212.291 247.465 212.036 247.796C211.782 248.126 211.436 248.374 211.042 248.51C210.648 248.645 210.223 248.662 209.819 248.558C209.415 248.454 209.051 248.234 208.771 247.925C208.491 247.616 208.309 247.231 208.245 246.819C208.182 246.407 208.241 245.986 208.415 245.607C208.589 245.228 208.871 244.909 209.225 244.689C209.579 244.468 209.989 244.357 210.406 244.368C210.981 244.403 211.519 244.661 211.906 245.088C212.292 245.515 212.496 246.077 212.473 246.652Z" fill="white"/>
<path d="M219.056 246.683C219.026 247.099 218.874 247.497 218.619 247.827C218.365 248.157 218.019 248.405 217.625 248.541C217.231 248.676 216.806 248.693 216.402 248.589C215.998 248.485 215.634 248.265 215.354 247.956C215.074 247.647 214.892 247.263 214.828 246.851C214.765 246.439 214.824 246.017 214.998 245.638C215.172 245.26 215.454 244.94 215.808 244.72C216.162 244.5 216.572 244.388 216.989 244.399C217.564 244.434 218.102 244.692 218.489 245.119C218.875 245.546 219.079 246.108 219.056 246.683Z" fill="white"/>
<path d="M225.64 246.704C225.611 247.121 225.461 247.519 225.208 247.851C224.955 248.183 224.609 248.433 224.215 248.57C223.821 248.707 223.395 248.725 222.991 248.622C222.586 248.519 222.221 248.3 221.94 247.991C221.66 247.682 221.476 247.298 221.412 246.885C221.348 246.473 221.407 246.051 221.58 245.671C221.754 245.292 222.036 244.972 222.39 244.752C222.744 244.531 223.156 244.419 223.573 244.43C224.146 244.465 224.683 244.722 225.069 245.147C225.455 245.572 225.66 246.131 225.64 246.704Z" fill="white"/>
<path d="M232.234 246.735C232.205 247.149 232.057 247.546 231.806 247.877C231.555 248.207 231.213 248.458 230.822 248.596C230.43 248.735 230.007 248.757 229.604 248.658C229.201 248.56 228.835 248.345 228.552 248.041C228.269 247.738 228.081 247.358 228.011 246.949C227.941 246.539 227.992 246.119 228.158 245.738C228.324 245.358 228.598 245.034 228.946 244.807C229.293 244.58 229.7 244.46 230.115 244.461C230.697 244.482 231.247 244.734 231.644 245.16C232.041 245.586 232.253 246.153 232.234 246.735Z" fill="white"/>
<path d="M238.817 246.766C238.838 247.057 238.798 247.349 238.7 247.625C238.603 247.9 238.45 248.152 238.251 248.366C238.051 248.58 237.81 248.75 237.542 248.866C237.275 248.983 236.986 249.043 236.694 249.043C236.401 249.043 236.112 248.983 235.845 248.866C235.577 248.75 235.336 248.58 235.137 248.366C234.937 248.152 234.784 247.9 234.687 247.625C234.589 247.349 234.549 247.057 234.57 246.766C234.549 246.474 234.589 246.182 234.687 245.906C234.784 245.631 234.937 245.379 235.137 245.165C235.336 244.952 235.577 244.781 235.845 244.665C236.112 244.548 236.401 244.488 236.694 244.488C236.986 244.488 237.275 244.548 237.542 244.665C237.81 244.781 238.051 244.952 238.251 245.165C238.45 245.379 238.603 245.631 238.7 245.906C238.798 246.182 238.838 246.474 238.817 246.766Z" fill="white"/>
<path d="M245.401 246.797C245.372 247.211 245.224 247.608 244.973 247.939C244.722 248.27 244.38 248.52 243.989 248.659C243.597 248.798 243.174 248.819 242.771 248.721C242.368 248.622 242.002 248.408 241.719 248.104C241.436 247.8 241.248 247.42 241.178 247.011C241.108 246.602 241.159 246.181 241.325 245.801C241.491 245.42 241.765 245.097 242.113 244.87C242.46 244.643 242.867 244.522 243.282 244.523C243.864 244.545 244.414 244.796 244.811 245.223C245.208 245.649 245.42 246.215 245.401 246.797Z" fill="white"/>
<path d="M251.985 246.829C251.956 247.246 251.806 247.644 251.553 247.976C251.299 248.308 250.954 248.558 250.56 248.695C250.166 248.832 249.74 248.85 249.336 248.747C248.931 248.644 248.566 248.425 248.285 248.116C248.004 247.807 247.821 247.423 247.757 247.01C247.693 246.598 247.751 246.176 247.925 245.796C248.099 245.417 248.381 245.097 248.735 244.877C249.089 244.656 249.5 244.544 249.918 244.555C250.491 244.59 251.027 244.847 251.413 245.272C251.8 245.697 252.005 246.256 251.985 246.829Z" fill="white"/>
</g>
<path d="M242.631 97.6265C243.349 97.3104 243.958 96.7901 244.382 96.1303C244.807 95.4706 245.028 94.7006 245.018 93.9162C245.045 93.4062 244.968 92.8962 244.791 92.4171C244.614 91.938 244.342 91.4999 243.99 91.1295C243.639 90.7591 243.216 90.4641 242.746 90.2626C242.277 90.061 241.772 89.957 241.261 89.957C240.751 89.957 240.245 90.061 239.776 90.2626C239.307 90.4641 238.884 90.7591 238.532 91.1295C238.181 91.4999 237.908 91.938 237.732 92.4171C237.555 92.8962 237.478 93.4062 237.504 93.9162C237.489 94.7085 237.708 95.4877 238.135 96.1554C238.562 96.8231 239.177 97.3494 239.902 97.6679C234.114 98.536 234.373 104.82 234.373 104.82L248.057 104.882C248.057 104.882 248.377 98.4844 242.631 97.6265Z" fill="#4CAF4F"/>
<path opacity="0.1" d="M242.631 97.6265C243.349 97.3104 243.958 96.7901 244.382 96.1303C244.807 95.4706 245.028 94.7006 245.018 93.9162C245.045 93.4062 244.968 92.8962 244.791 92.4171C244.614 91.938 244.342 91.4999 243.99 91.1295C243.639 90.7591 243.216 90.4641 242.746 90.2626C242.277 90.061 241.772 89.957 241.261 89.957C240.751 89.957 240.245 90.061 239.776 90.2626C239.307 90.4641 238.884 90.7591 238.532 91.1295C238.181 91.4999 237.908 91.938 237.732 92.4171C237.555 92.8962 237.478 93.4062 237.504 93.9162C237.489 94.7085 237.708 95.4877 238.135 96.1554C238.562 96.8231 239.177 97.3494 239.902 97.6679C234.114 98.536 234.373 104.82 234.373 104.82L248.057 104.882C248.057 104.882 248.377 98.4844 242.631 97.6265Z" fill="black"/>
<path d="M264.866 108.936L216.095 108.715L216.068 114.544L264.84 114.765L264.866 108.936Z" fill="#4CAF4F"/>
<path opacity="0.2" d="M264.866 108.936L216.095 108.715L216.068 114.544L264.84 114.765L264.866 108.936Z" fill="white"/>
<path d="M85.5661 139.145H85.0803L83.6747 139.248C82.9141 139.294 82.1577 139.394 81.4113 139.548C80.9279 139.616 80.4484 139.709 79.9747 139.827L78.3728 140.271C75.6461 141.108 73.0736 142.382 70.7557 144.044C67.6932 146.266 65.136 149.112 63.2523 152.394C62.1451 154.286 61.264 156.302 60.6271 158.399C59.9579 160.679 59.5726 163.032 59.4799 165.407C59.4183 166.654 59.439 167.903 59.5419 169.148C59.5419 169.778 59.7176 170.409 59.8003 171.05C59.8698 171.696 59.9908 172.335 60.162 172.962C61.0914 177.109 62.9771 180.982 65.6688 184.271C68.3604 187.56 71.7835 190.175 75.6649 191.906C78.4741 193.118 81.4852 193.795 84.5429 193.901C87.7011 194.075 90.8624 193.621 93.8446 192.568L94.7542 192.227H94.8782L94.9815 192.289L108.014 198.903L107.632 199.234C106.237 194.914 104.893 190.728 103.591 186.707V186.552L103.704 186.439C106.866 183.254 109.213 179.355 110.546 175.07C111.754 171.153 112.107 167.022 111.58 162.957C111.112 159.344 109.95 155.856 108.159 152.684C106.615 149.959 104.624 147.513 102.268 145.449C100.324 143.816 98.1731 142.446 95.8704 141.377C94.128 140.626 92.3133 140.054 90.4547 139.672L88.3876 139.331L86.889 139.217L85.9795 139.155H85.6695C85.7725 139.144 85.8765 139.144 85.9795 139.155H86.8993L88.398 139.217L90.465 139.517C92.3468 139.871 94.1862 140.422 95.953 141.16C98.2954 142.217 100.485 143.583 102.464 145.222C104.863 147.276 106.897 149.723 108.479 152.456C110.321 155.663 111.518 159.198 112.004 162.864C112.574 166.992 112.246 171.194 111.043 175.184C109.7 179.557 107.317 183.54 104.097 186.79L104.159 186.521C105.461 190.542 106.815 194.728 108.221 199.037L108.417 199.668L107.828 199.368L94.7955 192.764H95.0229L94.0927 193.105C91.053 194.175 87.8332 194.638 84.6153 194.469C81.4916 194.35 78.4176 193.649 75.5512 192.402C70.0836 190.061 65.5345 185.991 62.6011 180.816C61.2513 178.427 60.2655 175.849 59.6763 173.168C59.5149 172.525 59.3941 171.873 59.3145 171.215C59.2318 170.564 59.0975 169.923 59.0665 169.282C58.7868 165.605 59.1754 161.907 60.2137 158.368C60.8664 156.242 61.7721 154.202 62.9112 152.291C64.8399 148.979 67.4503 146.115 70.5696 143.889C72.9257 142.222 75.5415 140.958 78.3107 140.147L79.9334 139.734C80.411 139.623 80.8939 139.537 81.3803 139.475C82.1344 139.336 82.8979 139.253 83.6644 139.227L85.0803 139.176C85.2413 139.154 85.4037 139.144 85.5661 139.145Z" fill="#4CAF4F"/>
<path d="M91.4569 163.248H89.5449L85.4108 157.44V153.626C85.4108 153.626 82.4549 153.44 82.8063 158.432C83.1577 163.424 82.8063 162.152 82.8063 162.152C82.8063 162.152 76.5328 162.152 76.016 162.721C75.4993 163.289 75.4683 169.346 75.3959 172.725C75.3563 173.54 75.5901 174.345 76.0601 175.011C76.5301 175.678 77.2094 176.168 77.9901 176.405C78.2089 176.465 78.4348 176.497 78.6619 176.498C80.2328 176.498 88.222 175.227 88.222 175.227H91.5189L91.4569 163.248Z" fill="#4CAF4F"/>
<path d="M96.9246 162.223L95.7464 175.286H92.4805V162.491L96.9246 162.223Z" fill="#4CAF4F"/>
<path d="M135.878 428.181V419.344L120.034 419.23L119.899 432.594L120.881 432.666C125.253 432.945 143.123 433.359 146.058 432.449C149.324 431.436 135.878 428.181 135.878 428.181Z" fill="#4CAF4F"/>
<path d="M146.43 431.624C146.43 431.769 140.498 431.893 133.191 431.893C125.884 431.893 119.951 431.769 119.951 431.624C119.951 431.48 125.884 431.355 133.191 431.355C140.498 431.355 146.43 431.48 146.43 431.624Z" fill="#263238"/>
<path d="M136.157 429.991C136.023 429.919 136.157 429.453 136.478 428.957C136.798 428.461 137.232 428.255 137.335 428.358C137.439 428.461 137.222 428.854 136.912 429.278C136.602 429.702 136.292 430.063 136.157 429.991Z" fill="#263238"/>
<path d="M137.17 430.568C137.026 430.568 137.098 429.989 137.408 429.441C137.718 428.893 138.131 428.563 138.245 428.645C138.359 428.728 138.173 429.193 137.883 429.679C137.594 430.165 137.305 430.619 137.17 430.568Z" fill="#263238"/>
<path d="M124.727 431.582C124.665 431.582 124.427 431.396 124.086 431.003C123.669 430.498 123.206 430.034 122.701 429.618C122.204 429.221 121.613 428.961 120.985 428.864C120.5 428.802 120.189 428.864 120.158 428.802C120.127 428.74 120.427 428.523 120.996 428.481C121.746 428.465 122.478 428.714 123.063 429.184C123.611 429.631 124.073 430.174 124.427 430.786C124.665 431.241 124.789 431.54 124.727 431.582Z" fill="#263238"/>
<path d="M136.209 428.326C136.282 428.45 136.013 428.761 135.558 428.926C135.103 429.091 134.7 429.029 134.68 428.926C134.659 428.823 134.979 428.605 135.372 428.461C135.765 428.316 136.127 428.202 136.209 428.326Z" fill="#263238"/>
<path d="M135.96 427.466C135.96 427.621 135.547 427.745 135.01 427.755C134.472 427.766 134.048 427.642 134.059 427.497C134.069 427.352 134.493 427.218 135.01 427.208C135.526 427.197 135.94 427.321 135.96 427.466Z" fill="#263238"/>
<path d="M174.893 428.181V419.344L159.049 419.23L158.915 432.46L159.897 432.532C164.269 432.811 182.149 433.359 185.074 432.449C188.34 431.436 174.893 428.181 174.893 428.181Z" fill="#4CAF4F"/>
<path d="M185.446 431.644C185.446 431.788 179.524 431.912 172.207 431.912C164.889 431.912 158.978 431.788 158.978 431.644C158.978 431.499 164.9 431.375 172.207 431.375C179.514 431.375 185.446 431.499 185.446 431.644Z" fill="#263238"/>
<path d="M175.172 429.991C175.048 429.919 175.172 429.453 175.493 428.957C175.813 428.461 176.247 428.255 176.351 428.358C176.454 428.461 176.237 428.854 175.927 429.278C175.617 429.702 175.307 430.063 175.172 429.991Z" fill="#263238"/>
<path d="M176.186 430.568C176.051 430.568 176.113 429.989 176.434 429.441C176.754 428.893 177.157 428.563 177.271 428.645C177.385 428.728 177.188 429.193 176.899 429.679C176.61 430.165 176.33 430.619 176.186 430.568Z" fill="#263238"/>
<path d="M163.742 431.582C163.68 431.582 163.453 431.396 163.101 431.003C162.685 430.498 162.221 430.034 161.717 429.618C161.22 429.221 160.629 428.961 160.001 428.864C159.525 428.802 159.205 428.864 159.174 428.802C159.143 428.74 159.443 428.523 160.011 428.481C160.761 428.465 161.493 428.714 162.078 429.184C162.629 429.628 163.092 430.171 163.443 430.786C163.68 431.241 163.804 431.54 163.742 431.582Z" fill="#263238"/>
<path d="M175.225 428.326C175.297 428.45 175.029 428.761 174.574 428.926C174.119 429.091 173.716 429.029 173.695 428.926C173.675 428.823 173.995 428.605 174.388 428.461C174.78 428.316 175.142 428.202 175.225 428.326Z" fill="#263238"/>
<path d="M174.997 427.466C174.997 427.621 174.584 427.745 174.046 427.755C173.509 427.766 173.095 427.642 173.106 427.497C173.116 427.352 173.529 427.218 174.046 427.208C174.563 427.197 174.997 427.321 174.997 427.466Z" fill="#263238"/>
<path d="M233.267 165.768C232.854 165.344 231.831 165.551 231.831 165.551C231.933 164.956 231.933 164.348 231.831 163.752C231.645 163.174 230.342 163.287 230.342 163.287C230.282 162.8 230.282 162.307 230.342 161.82C230.353 161.712 230.33 161.603 230.276 161.509C230.222 161.414 230.141 161.339 230.043 161.293C229.427 161.041 228.765 160.922 228.1 160.941C227.304 160.373 230.528 155.856 231.727 154.409C232.926 152.962 232.709 151.836 231.645 151.836C230.911 151.836 227.149 156.177 225.991 157.634C224.834 159.091 221.764 163.143 221.661 159.908C221.557 156.673 220.255 154.234 219.439 153.82C218.622 153.407 217.754 154.378 218.198 155.278C218.589 156.299 218.832 157.371 218.922 158.461C219.034 159.329 218.996 160.21 218.808 161.065C218.466 162.656 217.999 164.218 217.413 165.737H217.33C217.33 165.737 194.779 187.369 193.146 188.909C191.688 190.293 162.378 187.265 156.497 186.645C154.499 186.353 152.481 186.214 150.461 186.232C147.908 186.345 147.454 186.707 144.911 186.738C138.49 186.809 132.084 187.373 125.75 188.423C122.881 188.91 120.202 190.177 118.004 192.083C115.806 193.989 114.173 196.463 113.285 199.233C107.363 217.734 93.9479 261.524 91.5811 286.122C89.7926 289.365 88.1781 292.701 86.7442 296.116C85.0802 300.643 85.4833 300.798 86.0414 300.901C87.5504 301.18 89.266 293.057 89.9068 295.021C90.5476 296.984 86.6512 304.705 88.2325 304.932C90.2995 305.222 91.9428 296.664 92.1392 295.982C92.3356 295.3 93.3588 295.517 93.1727 296.158C92.873 297.067 89.9688 306.71 91.9945 307.02C93.1107 307.185 93.2348 305.149 93.2348 305.149C93.2348 305.149 95.3018 295.92 96.2423 296.106C97.1828 296.292 96.1803 301.739 95.7049 303.558C95.2295 305.377 95.8909 306.296 96.8624 305.852C97.5239 305.542 99.1052 300.013 99.5393 298.214C99.9734 296.416 101.059 291.434 102.516 294.318C103.973 297.201 106.185 298.876 107.094 298.917C107.299 298.893 107.492 298.809 107.649 298.675C107.806 298.54 107.918 298.362 107.973 298.163C108.027 297.964 108.021 297.754 107.955 297.558C107.888 297.363 107.765 297.192 107.601 297.067C106.818 296.303 106.147 295.433 105.606 294.483C105.124 293.743 104.774 292.925 104.573 292.065C104.156 290.35 103.914 288.598 103.849 286.835L103.684 285.802C105.999 274.34 112.665 240.699 122.287 219.212L126.235 227.335L127.951 233.35L117.43 259.323L162.305 258.734L155.608 232.957L163.742 206.086C172.537 206.282 195.12 206.613 198.882 204.908C203.615 202.84 228.1 171.917 228.1 171.917C229.696 170.677 231.224 169.352 232.678 167.949C232.678 167.949 234.166 166.698 233.267 165.768Z" fill="#FFBE9D"/>
<path d="M115.456 240.129C116.758 235.685 123.445 213.712 123.445 213.712C123.445 213.712 126.731 231.623 125.863 233.783C125.065 235.632 124.121 237.416 123.042 239.116C115.456 250.661 116.448 256.438 116.448 256.438L162.285 255.043C162.388 248.635 158.595 233.732 157.81 231.354C157.024 228.977 159.639 221.195 159.639 221.195C159.639 221.195 164.807 215.934 164.621 213.226C164.522 210.794 164.222 208.374 163.721 205.992L191.627 207.025L190.748 188.112L150.668 184.102C149.273 188.039 136.653 186.107 136.653 186.107C123.031 186.561 122.184 189.063 116.52 193.465C110.857 197.868 101.482 235.654 101.482 235.654L115.456 240.129Z" fill="#4CAF4F"/>
<path d="M142.555 235.655C141.761 235.797 140.952 235.839 140.147 235.779C138.648 235.779 136.591 235.676 134.328 235.448C132.065 235.221 130.018 234.901 128.561 234.611C127.757 234.508 126.97 234.306 126.215 234.012C127.023 234.012 127.829 234.088 128.623 234.239C130.091 234.425 132.127 234.684 134.38 234.911C136.633 235.138 138.679 235.293 140.157 235.397C140.963 235.407 141.766 235.493 142.555 235.655Z" fill="#263238"/>
<path d="M145.697 231.758C144.902 232.147 144.062 232.435 143.196 232.616C139.072 233.699 134.818 234.204 130.556 234.114C129.674 234.143 128.792 234.06 127.931 233.866C128.801 233.756 129.679 233.711 130.556 233.732C132.178 233.68 134.411 233.566 136.871 233.277C139.33 232.988 141.522 232.574 143.072 232.244C143.933 232.014 144.811 231.851 145.697 231.758Z" fill="#263238"/>
<path d="M161.117 214.375C161.096 215.163 160.989 215.946 160.797 216.711C160.528 218.147 160.114 220.111 159.587 222.261C159.06 224.411 158.554 226.395 158.099 227.738C157.916 228.508 157.646 229.253 157.293 229.961C157.351 229.175 157.496 228.398 157.727 227.645C158.12 226.033 158.564 224.173 159.06 222.137C159.556 220.101 160.032 218.24 160.425 216.628C160.564 215.852 160.797 215.096 161.117 214.375Z" fill="#263238"/>
<path d="M115.942 237.497C113.551 237.128 111.191 236.579 108.883 235.854C106.524 235.303 104.209 234.577 101.958 233.684C104.348 234.059 106.707 234.608 109.017 235.327C111.376 235.876 113.691 236.602 115.942 237.497Z" fill="#263238"/>
<path d="M164.217 205.765C163.827 205.832 163.429 205.832 163.039 205.765C161.959 205.655 160.899 205.401 159.886 205.011C158.196 204.375 156.657 203.393 155.368 202.128C154.079 200.862 153.07 199.341 152.404 197.662C151.668 195.815 151.353 193.828 151.484 191.844C151.53 190.207 152.019 188.614 152.9 187.234C153.519 186.304 154.444 185.621 155.515 185.301C155.801 185.222 156.096 185.184 156.393 185.188C156.6 185.188 156.703 185.188 156.703 185.188C156.703 185.188 156.269 185.188 155.577 185.467C154.595 185.83 153.762 186.51 153.21 187.399C151.804 189.611 151.411 193.652 152.91 197.425C153.608 199.203 154.7 200.801 156.104 202.096C157.254 203.156 158.579 204.01 160.021 204.618C161.373 205.153 162.78 205.537 164.217 205.765Z" fill="#263238"/>
<path d="M188.309 206.653C188.05 203.484 187.967 200.303 188.061 197.124C187.98 193.948 188.076 190.771 188.35 187.605C188.609 190.771 188.691 193.949 188.598 197.124C188.685 200.304 188.588 203.485 188.309 206.653Z" fill="#263238"/>
<path d="M150.399 185.259C150.513 182.954 150.751 180.35 150.751 180.35C150.751 180.35 156.456 179.719 156.797 173.828C157.138 167.937 156.797 154.346 156.797 154.346L146.461 149.055L134.989 158.077L136.757 187.533L147.278 188.205C148.082 188.227 148.862 187.929 149.447 187.377C150.033 186.825 150.375 186.063 150.399 185.259Z" fill="#FFBE9D"/>
<path d="M151.422 169.169C151.422 169.169 151.422 169.283 151.329 169.417C151.252 169.515 151.153 169.592 151.039 169.642C150.926 169.693 150.802 169.715 150.678 169.707C150.017 169.707 149.376 168.942 149.148 168.053C149.04 167.622 149.04 167.171 149.148 166.74C149.17 166.552 149.237 166.373 149.346 166.217C149.454 166.062 149.599 165.936 149.769 165.852C149.908 165.794 150.064 165.794 150.203 165.852C150.306 165.903 150.389 165.986 150.44 166.089C150.513 166.265 150.44 166.379 150.44 166.368C150.44 166.358 150.44 166.265 150.337 166.162C150.283 166.088 150.204 166.036 150.114 166.017C150.024 165.998 149.931 166.013 149.851 166.058C149.724 166.135 149.619 166.242 149.545 166.371C149.471 166.499 149.431 166.644 149.427 166.792C149.34 167.177 149.34 167.576 149.427 167.96C149.634 168.766 150.192 169.417 150.688 169.479C150.785 169.492 150.884 169.486 150.978 169.459C151.073 169.432 151.16 169.386 151.236 169.324C151.36 169.242 151.402 169.159 151.422 169.169Z" fill="#EB996E"/>
<path d="M160.342 151.165C159.546 148.457 156.663 147.114 154.037 146.369C150.038 145.233 145.718 144.736 141.811 146.173C137.904 147.61 133.212 150.131 133.212 154.441C130.907 154.255 129.584 156.271 128.675 158.772C128.093 160.296 127.745 161.898 127.641 163.526C127.352 169.169 125.77 176.962 122.112 181.096C120.045 183.401 117.182 184.992 116.004 187.865C114.97 190.356 115.508 193.312 114.546 195.834C113.689 198.056 111.797 199.637 110.412 201.57C109.001 203.763 108.171 206.278 107.999 208.879C107.827 211.481 108.32 214.084 109.43 216.442C110.549 218.741 112.124 220.788 114.059 222.458C115.994 224.128 118.248 225.387 120.686 226.158C125.513 227.626 130.661 227.677 135.517 226.302C139.161 225.431 142.56 223.746 145.459 221.372C148.426 218.95 150.463 215.576 151.226 211.823C151.96 207.606 150.782 203.317 149.903 199.121C147.154 185.86 147.94 185.168 151.412 172.859C151.495 172.642 151.536 172.414 151.598 172.197C151.66 171.98 151.691 171.877 151.733 171.711C151.831 171.225 151.883 170.73 151.888 170.234C151.38 170.422 150.83 170.462 150.301 170.349C149.772 170.235 149.286 169.973 148.901 169.593C148.515 169.187 148.246 168.685 148.122 168.139C147.998 167.594 148.024 167.024 148.198 166.492C148.442 165.91 148.805 165.386 149.265 164.953C149.724 164.521 150.269 164.189 150.865 163.981C152.012 163.505 153.242 163.257 154.368 162.73C156.756 161.593 158.409 159.237 159.536 156.767C160.462 155.055 160.748 153.069 160.342 151.165Z" fill="#263238"/>
<path d="M151.836 169.449C152.054 169.772 152.234 170.119 152.373 170.483C152.683 171.134 153.096 172.054 153.551 173.118L153.634 173.315H153.417L152.383 173.408C151.67 173.408 151.071 173.542 150.368 173.532C150.307 173.518 150.25 173.489 150.203 173.447C150.156 173.406 150.12 173.353 150.099 173.294C150.068 173.2 150.068 173.099 150.099 173.005C150.123 172.865 150.154 172.727 150.192 172.591L150.378 171.857C150.472 171.368 150.617 170.89 150.812 170.431C150.793 170.93 150.72 171.426 150.595 171.909L150.451 172.643C150.399 172.891 150.306 173.273 150.451 173.242C150.967 173.242 151.701 173.129 152.383 173.087L153.417 172.994L153.283 173.222C152.838 172.188 152.466 171.217 152.249 170.545C152.059 170.202 151.919 169.833 151.836 169.449Z" fill="#4CAF4F"/>
<path d="M116.448 256.438L162.285 255.043L182.232 332.909L178.563 422.226H154.326L157.293 334.811L139.568 280.602L142.296 425.689L117.802 426.05L115.228 289.676C115.114 285.883 113.874 277.336 114.339 273.574L116.448 256.438Z" fill="#263238"/>
<path d="M145.665 281.709C144.915 281.756 144.162 281.711 143.423 281.575C142.038 281.409 140.146 281.12 138.069 280.707C135.992 280.293 134.131 279.818 132.788 279.435C132.07 279.277 131.375 279.027 130.721 278.691C130.721 278.536 134.09 279.342 138.224 280.179C142.358 281.017 145.686 281.554 145.665 281.709Z" fill="#455A64"/>
<path d="M178.315 417.327C178.315 417.472 172.827 417.596 166.057 417.596C159.287 417.596 153.789 417.472 153.789 417.327C153.789 417.183 159.277 417.059 166.057 417.059C172.837 417.059 178.315 417.172 178.315 417.327Z" fill="#455A64"/>
<path d="M142.079 421.917C142.079 422.072 136.746 422.186 130.173 422.186C123.6 422.186 118.277 422.072 118.277 421.917C118.277 421.762 123.61 421.648 130.173 421.648C136.736 421.648 142.079 421.772 142.079 421.917Z" fill="#455A64"/>
<path d="M138.916 421.547C138.772 421.547 138.131 389.849 137.48 350.751C136.829 311.653 136.446 279.934 136.58 279.934C136.715 279.934 137.376 311.622 138.017 350.741C138.658 389.859 139.071 421.547 138.916 421.547Z" fill="#455A64"/>
<path d="M175.059 417.33C175.048 417.189 175.048 417.048 175.059 416.907V415.667C175.059 414.55 175.142 412.948 175.204 410.912C175.349 406.778 175.555 400.773 175.814 393.415C176.372 378.615 177.157 358.213 178.015 335.692C178.015 335.475 178.015 335.268 178.015 335.082V335.155C172.589 313.451 167.68 293.752 164.114 279.499L159.98 262.643C159.505 260.669 159.143 259.129 158.885 258.054C158.761 257.547 158.678 257.155 158.606 256.855C158.565 256.72 158.541 256.582 158.533 256.441C158.587 256.572 158.628 256.707 158.657 256.844C158.74 257.134 158.843 257.527 158.988 258.023C159.267 259.056 159.67 260.627 160.187 262.591C161.22 266.58 162.678 272.327 164.497 279.406C168.093 293.648 173.054 313.296 178.553 335.031V335.103C178.553 335.289 178.553 335.506 178.553 335.713C177.633 358.233 176.796 378.625 176.186 393.425C175.865 400.794 175.597 406.757 175.411 410.912C175.307 412.979 175.225 414.55 175.173 415.667C175.173 416.194 175.111 416.607 175.101 416.907C175.102 417.049 175.088 417.191 175.059 417.33Z" fill="#455A64"/>
<path d="M167.153 333.262C165.412 333.834 163.618 334.232 161.799 334.45C159.566 334.833 157.665 335.101 156.807 335.143V334.936C157.086 335.019 157.231 335.07 157.231 335.112C157.231 335.153 157.055 335.112 156.766 335.112H156.146L156.766 334.926C157.572 334.688 159.473 334.295 161.706 333.892C163.496 333.504 165.321 333.293 167.153 333.262Z" fill="#455A64"/>
<path d="M166.729 336.228C165.117 336.302 163.502 336.23 161.903 336.011C160.288 335.978 158.68 335.802 157.097 335.484C160.327 335.221 163.578 335.472 166.729 336.228Z" fill="#455A64"/>
<path opacity="0.2" d="M116.251 258.082C116.794 258.779 117.478 259.353 118.258 259.768C119.038 260.183 119.896 260.429 120.778 260.49C122.624 260.708 124.491 260.674 126.328 260.386C138.162 259.074 150.698 257.864 162.284 255.043C147.288 255.88 131.444 255.601 116.447 256.438L116.292 257.72" fill="black"/>
<g opacity="0.2">
<path d="M131.702 279.219L140.156 312.023L139.567 280.604L131.702 279.219Z" fill="black"/>
</g>
</svg>
