<svg width="442" height="433" viewBox="0 0 442 433" fill="none" xmlns="http://www.w3.org/2000/svg">
<path d="M220.766 380.997C315.327 380.997 391.984 376.521 391.984 371C391.984 365.479 315.327 361.004 220.766 361.004C126.206 361.004 49.5488 365.479 49.5488 371C49.5488 376.521 126.206 380.997 220.766 380.997Z" fill="#F5F5F5"/>
<path d="M308.41 147.751L299.65 144.219C299.65 144.219 288.091 165.298 284.779 166.366C280.276 167.814 270.951 171.841 265.423 172.547C264.672 173.431 263.444 176.177 263.559 177.175C270.986 179.656 287.305 176.362 290.802 173.766C298.758 167.876 308.41 147.751 308.41 147.751Z" fill="#E58A7B"/>
<path d="M311.104 142.953C312.738 148.984 303.89 161.118 303.89 161.118L292.295 154.618C292.295 154.618 294.467 149.629 297.116 144.551C301.364 136.348 309.241 136.074 311.104 142.953Z" fill="#4CAF4F"/>
<path opacity="0.2" d="M311.104 142.953C312.738 148.984 303.89 161.118 303.89 161.118L292.295 154.618C292.295 154.618 294.467 149.629 297.116 144.551C301.364 136.348 309.241 136.074 311.104 142.953Z" fill="black"/>
<path opacity="0.2" d="M296.896 157.215L301.461 159.776L302.265 145.762C299.607 147.802 297.734 153.948 296.896 157.215Z" fill="black"/>
<path d="M303.474 138.416C303.474 138.416 294.45 158.497 299.713 195.886H335.274C335.839 190.428 333.967 163.795 340.74 138.08C336.839 137.318 332.892 136.813 328.924 136.57C323.892 136.279 318.847 136.279 313.815 136.57C310.327 136.924 306.87 137.541 303.474 138.416Z" fill="#4CAF4F"/>
<path opacity="0.2" d="M303.474 138.416C303.474 138.416 294.45 158.497 299.713 195.886H335.274C335.839 190.428 333.967 163.795 340.74 138.08C336.839 137.318 332.892 136.813 328.924 136.57C323.892 136.279 318.847 136.279 313.815 136.57C310.327 136.924 306.87 137.541 303.474 138.416Z" fill="black"/>
<g style="mix-blend-mode:multiply">
<path d="M295.227 371.791C295.174 372.745 308.658 373.513 325.339 373.513C342.02 373.513 355.602 372.745 355.655 371.791C355.708 370.838 342.232 370.078 325.542 370.078C308.852 370.078 295.289 370.846 295.227 371.791Z" fill="#E8ECF1"/>
</g>
<path d="M318.963 346.734L312.656 349.176L318.089 363.211L324.396 360.769L318.963 346.734Z" fill="#E58A7B"/>
<path d="M347.089 365.001H340.439L338.002 349.609H344.651L347.089 365.001Z" fill="#E58A7B"/>
<path d="M339.98 364.234H347.451C347.58 364.235 347.706 364.281 347.804 364.365C347.903 364.449 347.968 364.566 347.989 364.694L348.952 370.601C348.972 370.75 348.96 370.9 348.917 371.044C348.874 371.187 348.8 371.319 348.702 371.431C348.603 371.544 348.481 371.633 348.344 371.694C348.208 371.755 348.059 371.786 347.91 371.785C345.305 371.74 344.051 371.581 340.766 371.581C338.744 371.581 334.584 371.793 331.776 371.793C328.968 371.793 328.783 369.038 329.939 368.782C335.132 367.661 337.145 366.133 338.876 364.649C339.181 364.381 339.574 364.234 339.98 364.234Z" fill="#263238"/>
<path d="M317.904 361.955L324.968 359.889C325.094 359.853 325.229 359.862 325.349 359.913C325.47 359.965 325.569 360.056 325.631 360.171L328.28 365.47C328.341 365.604 328.373 365.75 328.372 365.898C328.371 366.046 328.338 366.192 328.275 366.326C328.212 366.459 328.12 366.578 328.007 366.672C327.893 366.767 327.76 366.836 327.618 366.874C325.048 367.58 323.326 368.013 320.112 368.949C317.895 369.594 315.634 370.644 313.444 371.342C311.926 371.828 308.358 371.845 306.512 371.845C303.784 371.845 303.174 368.967 304.349 368.834C307.307 368.507 307.704 368.658 309.338 367.836C312.011 366.668 314.434 364.995 316.473 362.909C316.858 362.47 317.351 362.141 317.904 361.955Z" fill="#263238"/>
<path d="M266.536 172.51L259.224 169.445L256.213 177.552C259.21 178.008 262.259 178.008 265.255 177.552L266.536 172.51Z" fill="#E58A7B"/>
<path d="M253.784 169.234L253.59 174.621L256.213 177.535L259.224 169.429L253.784 169.234Z" fill="#E58A7B"/>
<path d="M319.829 347.925L313.502 350.367L316.304 357.625L322.631 355.182L319.829 347.925Z" fill="#CF6F64"/>
<path d="M344.651 349.609H338.002L339.265 357.548H345.914L344.651 349.609Z" fill="#CF6F64"/>
<path opacity="0.2" d="M298.582 185.773C298.714 187.371 298.865 189.005 299.059 190.683L325.498 182.1C329.627 180.876 333.215 178.281 335.671 174.744C335.777 172.386 335.909 169.904 336.112 167.317C336.201 166.063 336.307 164.774 336.421 163.467C336.536 162.16 336.695 160.712 336.863 159.316L298.582 185.773Z" fill="black"/>
<path d="M307.218 156.808L306.335 156.702C306.856 152.287 310.15 148.808 313.62 148.896V149.779C310.583 149.717 307.686 152.852 307.218 156.808Z" fill="white"/>
<path d="M311.926 164.96H311.775V164.077C314.813 164.192 317.665 161.022 318.133 157.074L319.017 157.18C318.549 161.498 315.361 164.96 311.926 164.96Z" fill="white"/>
<path d="M328.429 119.555C327.184 124.42 325.718 133.331 328.924 136.571C328.924 136.571 326.681 141.508 317.647 141.508C309.391 141.508 313.815 136.571 313.815 136.571C319.307 135.282 319.405 131.273 318.68 127.476L328.429 119.555Z" fill="#E58A7B"/>
<path d="M324.456 122.785L318.689 127.474C318.868 128.347 318.972 129.233 318.999 130.123C320.685 131.801 324.067 127.554 324.412 125.381C324.587 124.526 324.602 123.646 324.456 122.785Z" fill="#CF6F64"/>
<path d="M308.773 119.491C309.174 120.187 309.715 120.792 310.36 121.269C311.006 121.746 311.743 122.085 312.526 122.264C314.645 122.732 315.705 120.781 315.122 118.82C314.601 117.054 312.862 114.679 310.707 115.085C310.245 115.18 309.813 115.384 309.447 115.681C309.081 115.977 308.791 116.357 308.601 116.788C308.412 117.22 308.329 117.691 308.358 118.161C308.388 118.631 308.531 119.087 308.773 119.491Z" fill="#CF6F64"/>
<path d="M312.278 103.922C308.975 105.432 307.81 118.554 311.96 120.497C316.111 122.44 318.53 101.052 312.278 103.922Z" fill="#263238"/>
<path d="M329.436 112.231C328.641 118.819 328.553 122.696 325.021 126.069C323.926 127.188 322.543 127.984 321.025 128.367C319.507 128.75 317.913 128.706 316.418 128.24C314.924 127.774 313.587 126.904 312.555 125.726C311.524 124.548 310.838 123.108 310.574 121.565C309.505 115.649 310.98 105.873 317.585 103.251C318.973 102.638 320.499 102.409 322.006 102.585C323.512 102.761 324.944 103.338 326.153 104.254C327.362 105.17 328.304 106.393 328.881 107.795C329.459 109.198 329.65 110.73 329.436 112.231Z" fill="#E58A7B"/>
<path d="M318.583 107.331C323.476 106.086 327.07 105.239 325.78 109.309C324.076 114.749 322.027 120.012 324.774 120.251C326.452 120.401 333.869 117.257 332.924 114.069C332.103 111.296 335.574 110.537 336.192 109.133C338.479 104.046 331.935 104.718 333.101 101.627C334.267 98.5361 327.803 93.5556 324.27 96.037C318.522 100.046 308.658 99.9843 313.841 93.3878C317.559 88.6811 310.927 89.6436 310.927 89.6436C310.927 89.6436 314.936 92.0191 308.19 95.6926C301.055 99.6134 307.598 110.148 318.583 107.331Z" fill="#263238"/>
<path d="M332.033 119.491C331.067 120.889 329.616 121.877 327.962 122.264C325.78 122.732 324.942 120.781 325.763 118.82C326.496 117.054 328.509 114.679 330.593 115.085C332.677 115.491 333.154 117.761 332.033 119.491Z" fill="#E58A7B"/>
<path d="M299.712 195.887C299.712 195.887 293.743 249.312 293.275 269.587C292.798 290.675 313.506 356.472 313.506 356.472L324.103 352.057C324.103 352.057 311.74 291.938 313.506 271.23C315.378 248.65 323.114 195.922 323.114 195.922L299.712 195.887Z" fill="#4CAF4F"/>
<path opacity="0.2" d="M314.548 210.553C309.788 220.426 312.994 239.951 315.572 251.519C316.553 243.35 317.718 234.484 318.822 226.281C318.716 213.671 317.736 203.93 314.548 210.553Z" fill="black"/>
<path d="M323.635 348.559C323.688 348.559 324.889 351.932 324.889 351.932L312.667 357.071L310.742 353.486L323.635 348.559Z" fill="#4CAF4F"/>
<path d="M312.331 195.887C312.331 195.887 316.897 246.698 319.917 265.728C323.237 286.578 336.253 356.013 336.253 356.013H348.431C348.431 356.013 341.137 288.264 339.759 267.618C338.258 245.224 335.273 195.887 335.273 195.887H312.331Z" fill="#4CAF4F"/>
<path d="M348.616 352.843C348.669 352.843 349.023 356.243 349.023 356.243H335.635L334.682 352.34L348.616 352.843Z" fill="#4CAF4F"/>
<path opacity="0.2" d="M343.954 348.814C343.926 348.814 343.899 348.804 343.878 348.786C343.857 348.769 343.843 348.744 343.839 348.716C343.768 348.098 337.189 286.902 335.953 268.357C334.611 248.241 331.909 203.62 331.882 203.169C331.881 203.155 331.883 203.14 331.888 203.126C331.892 203.112 331.9 203.1 331.91 203.089C331.92 203.078 331.932 203.069 331.945 203.064C331.959 203.058 331.974 203.055 331.988 203.055C332.017 203.055 332.045 203.065 332.066 203.085C332.088 203.105 332.101 203.132 332.103 203.161C332.103 203.611 334.832 248.197 336.174 268.349C337.41 286.893 343.989 348.045 344.051 348.708C344.053 348.722 344.053 348.737 344.049 348.751C344.046 348.766 344.039 348.779 344.03 348.791C344.021 348.803 344.009 348.812 343.996 348.819C343.983 348.826 343.969 348.83 343.954 348.831V348.814Z" fill="black"/>
<path d="M319.334 114.069C319.334 114.608 318.999 115.04 318.646 115.04C318.292 115.04 318.036 114.608 318.072 114.069C318.107 113.53 318.407 113.098 318.76 113.098C319.114 113.098 319.37 113.539 319.334 114.069Z" fill="#263238"/>
<path d="M313.276 114.069C313.276 114.608 312.932 115.04 312.588 115.04C312.243 115.04 311.978 114.608 312.005 114.069C312.031 113.53 312.349 113.098 312.702 113.098C313.056 113.098 313.312 113.539 313.276 114.069Z" fill="#263238"/>
<path d="M315.183 114.344C314.446 115.989 313.496 117.53 312.357 118.927C313.24 119.81 314.892 119.404 314.892 119.404L315.183 114.344Z" fill="#DF5753"/>
<path d="M315.343 121.656C315.322 121.656 315.302 121.652 315.283 121.644C315.264 121.636 315.247 121.624 315.233 121.609C315.219 121.594 315.208 121.577 315.201 121.557C315.194 121.538 315.191 121.518 315.193 121.497C315.195 121.454 315.214 121.414 315.245 121.384C315.276 121.355 315.317 121.338 315.36 121.338C316.036 121.343 316.704 121.196 317.315 120.909C317.926 120.622 318.465 120.201 318.893 119.678C318.923 119.651 318.962 119.637 319.003 119.637C319.044 119.637 319.083 119.651 319.113 119.678C319.142 119.708 319.158 119.747 319.158 119.789C319.158 119.83 319.142 119.869 319.113 119.899C318.656 120.455 318.08 120.901 317.427 121.205C316.775 121.509 316.063 121.663 315.343 121.656Z" fill="#263238"/>
<path d="M320.411 112.444C320.369 112.466 320.322 112.477 320.274 112.477C320.227 112.477 320.18 112.466 320.137 112.444C319.807 112.23 319.431 112.097 319.04 112.056C318.649 112.015 318.253 112.066 317.886 112.205C317.85 112.223 317.811 112.234 317.771 112.236C317.731 112.239 317.69 112.234 317.653 112.22C317.615 112.207 317.58 112.187 317.55 112.16C317.52 112.133 317.496 112.1 317.479 112.064C317.446 111.986 317.446 111.897 317.477 111.818C317.508 111.739 317.569 111.675 317.647 111.64C318.109 111.452 318.609 111.377 319.106 111.423C319.602 111.47 320.08 111.635 320.499 111.905C320.533 111.928 320.562 111.958 320.585 111.992C320.607 112.026 320.622 112.065 320.63 112.105C320.637 112.145 320.636 112.186 320.628 112.226C320.619 112.266 320.602 112.304 320.579 112.338C320.534 112.389 320.476 112.425 320.411 112.444Z" fill="#263238"/>
<path d="M310.936 110.68C310.889 110.668 310.846 110.644 310.812 110.609C310.783 110.58 310.76 110.546 310.744 110.508C310.728 110.47 310.72 110.429 310.72 110.388C310.72 110.347 310.728 110.306 310.744 110.268C310.76 110.23 310.783 110.196 310.812 110.167C311.151 109.788 311.572 109.491 312.044 109.301C312.516 109.112 313.025 109.033 313.532 109.072C313.573 109.079 313.612 109.093 313.647 109.115C313.681 109.137 313.711 109.166 313.734 109.2C313.758 109.234 313.774 109.272 313.781 109.312C313.789 109.353 313.789 109.394 313.78 109.434C313.761 109.516 313.713 109.588 313.644 109.637C313.576 109.686 313.492 109.708 313.409 109.699C313.007 109.674 312.606 109.74 312.234 109.893C311.862 110.046 311.53 110.282 311.263 110.582C311.223 110.627 311.171 110.66 311.113 110.677C311.056 110.694 310.994 110.695 310.936 110.68Z" fill="#263238"/>
<path d="M344.157 146.77L334.973 144.324C334.973 144.324 325.966 166.498 322.778 167.937C318.451 169.915 307.492 176.768 302.83 180.009C302.574 181.113 302.777 184.036 303.359 184.839C311.307 183.391 326.522 177.536 329.701 174.56C336.951 167.77 344.157 146.77 344.157 146.77Z" fill="#E58A7B"/>
<path d="M337.746 365.399C337.298 365.435 336.852 365.313 336.484 365.055C336.37 364.952 336.285 364.822 336.237 364.676C336.189 364.531 336.18 364.375 336.21 364.225C336.215 364.131 336.246 364.04 336.299 363.963C336.352 363.885 336.425 363.823 336.51 363.783C337.252 363.404 339.327 364.719 339.565 364.87C339.592 364.886 339.612 364.91 339.623 364.939C339.634 364.967 339.636 364.999 339.627 365.028C339.62 365.059 339.604 365.088 339.583 365.111C339.561 365.134 339.534 365.151 339.504 365.161C338.928 365.302 338.339 365.382 337.746 365.399ZM336.863 364.022C336.796 364.007 336.727 364.007 336.66 364.022C336.626 364.039 336.598 364.066 336.579 364.099C336.561 364.132 336.552 364.169 336.554 364.207C336.531 364.31 336.535 364.417 336.566 364.518C336.597 364.619 336.654 364.709 336.731 364.781C337.075 365.09 337.941 365.126 339.08 364.905C338.401 364.458 337.638 364.157 336.837 364.022H336.863Z" fill="#4CAF4F"/>
<path d="M339.459 365.16C339.436 365.167 339.411 365.167 339.388 365.16C338.726 364.789 337.481 363.332 337.666 362.59C337.694 362.473 337.76 362.368 337.855 362.293C337.949 362.217 338.066 362.176 338.187 362.175C338.306 362.159 338.426 362.169 338.54 362.204C338.655 362.24 338.76 362.299 338.849 362.378C339.582 363.005 339.626 364.93 339.626 365.028C339.631 365.057 339.625 365.086 339.611 365.112C339.596 365.137 339.574 365.157 339.547 365.169C339.517 365.175 339.487 365.172 339.459 365.16ZM338.275 362.467H338.214C338.01 362.467 337.984 362.582 337.975 362.626C337.869 363.058 338.655 364.162 339.309 364.683C339.306 363.937 339.074 363.21 338.646 362.599C338.544 362.51 338.411 362.462 338.275 362.467Z" fill="#4CAF4F"/>
<path d="M314.3 364.296C313.76 364.485 313.172 364.485 312.631 364.296C312.508 364.23 312.405 364.133 312.329 364.016C312.253 363.899 312.208 363.764 312.199 363.625C312.187 363.538 312.199 363.449 312.231 363.367C312.263 363.285 312.316 363.213 312.384 363.157C313.09 362.521 315.978 363.157 316.305 363.281C316.336 363.289 316.363 363.307 316.383 363.333C316.402 363.358 316.412 363.39 316.411 363.422C316.412 363.455 316.404 363.488 316.386 363.516C316.369 363.545 316.344 363.567 316.314 363.581C315.663 363.875 314.99 364.114 314.3 364.296ZM312.861 363.245C312.76 363.266 312.666 363.311 312.587 363.378C312.559 363.399 312.537 363.428 312.525 363.46C312.512 363.493 312.509 363.529 312.516 363.563C312.522 363.656 312.551 363.746 312.6 363.824C312.65 363.903 312.718 363.968 312.799 364.014C313.267 364.261 314.353 364.067 315.757 363.475C314.812 363.236 313.832 363.159 312.861 363.245Z" fill="#4CAF4F"/>
<path d="M316.287 363.58H316.217C315.334 363.421 313.568 362.406 313.515 361.646C313.515 361.47 313.594 361.222 314.018 361.081C314.161 361.03 314.313 361.009 314.465 361.018C314.617 361.027 314.765 361.066 314.901 361.134C315.855 361.602 316.358 363.298 316.385 363.377C316.391 363.404 316.39 363.432 316.382 363.458C316.375 363.484 316.36 363.508 316.34 363.527C316.327 363.549 316.309 363.567 316.287 363.58ZM314.195 361.346H314.106C313.833 361.443 313.833 361.558 313.833 361.593C313.833 362.053 315.113 362.891 316.005 363.174C315.799 362.465 315.365 361.844 314.769 361.408C314.591 361.318 314.387 361.296 314.195 361.346Z" fill="#4CAF4F"/>
<path d="M303.581 179.488L294.37 183.727L293.302 186.376L296.702 188.663C296.702 188.663 303.06 187.975 304.87 183.886L303.581 179.488Z" fill="#E58A7B"/>
<path d="M303.969 184.988C303.763 183.218 303.179 181.513 302.256 179.99L303.713 178.895C304.809 180.65 305.508 182.624 305.762 184.679L303.969 184.988Z" fill="#263238"/>
<path d="M305.541 180.739C305.735 181.045 305.831 181.404 305.815 181.767C305.798 182.129 305.67 182.478 305.449 182.765C305.227 183.053 304.922 183.265 304.576 183.373C304.23 183.481 303.858 183.479 303.513 183.369C303.167 183.258 302.864 183.044 302.644 182.755C302.425 182.466 302.299 182.117 302.285 181.754C302.272 181.391 302.37 181.033 302.567 180.728C302.764 180.423 303.05 180.187 303.386 180.05C303.763 179.858 304.202 179.822 304.605 179.951C305.009 180.08 305.345 180.363 305.541 180.739Z" fill="#263238"/>
<path d="M288.145 187.153L289.372 188.389L297.637 184.857L294.37 183.727L288.145 187.153Z" fill="#E58A7B"/>
<path opacity="0.2" d="M323.635 348.559C323.688 348.559 324.889 351.932 324.889 351.932L312.667 357.071L310.742 353.486L323.635 348.559Z" fill="black"/>
<path opacity="0.2" d="M348.616 352.843C348.669 352.843 349.023 356.243 349.023 356.243H335.635L334.682 352.34L348.616 352.843Z" fill="black"/>
<path d="M346.55 144.227C348.979 152.06 339.486 162.772 339.486 162.772L326.372 157.42C327.926 152.893 329.719 148.451 331.741 144.113C335.768 135.432 344.095 136.324 346.55 144.227Z" fill="#4CAF4F"/>
<path opacity="0.2" d="M346.55 144.227C348.979 152.06 339.486 162.772 339.486 162.772L326.372 157.42C327.926 152.893 329.719 148.451 331.741 144.113C335.768 135.432 344.095 136.324 346.55 144.227Z" fill="black"/>
<path d="M216.244 65.75H210.602V66.6596H216.244V65.75Z" fill="#4CAF4F"/>
<path d="M289.29 101.751L288.607 116.906L289.516 116.947L290.199 101.792L289.29 101.751Z" fill="#4CAF4F"/>
<path d="M287.535 69.8281H183.333L173.637 286.815H277.838L287.535 69.8281Z" fill="#4CAF4F"/>
<path opacity="0.56" d="M284.426 72.8164H180.224L170.528 289.803H274.73L284.426 72.8164Z" fill="#FAFAFA"/>
<path opacity="0.07" d="M281.318 75.7891H177.116L167.411 292.776H271.613L281.318 75.7891Z" fill="#4CAF4F"/>
<path d="M269.459 170.43H180.516L179.774 187.031H268.717L269.459 170.43Z" fill="white"/>
<path d="M229.429 158.312H181.054L180.728 165.739H229.102L229.429 158.312Z" fill="#4CAF4F"/>
<path d="M267.454 215.234H178.511L177.77 231.836H266.712L267.454 215.234Z" fill="white"/>
<path opacity="0.47" d="M251.143 254.258H191.333L190.441 274.153H250.251L251.143 254.258Z" fill="#4CAF4F"/>
<path d="M247.143 277.245H187.333C187.307 277.252 187.28 277.252 187.254 277.245C187.245 277.22 187.245 277.192 187.254 277.166L188.137 257.262C188.137 257.248 188.139 257.235 188.145 257.222C188.15 257.21 188.158 257.199 188.168 257.19C188.178 257.181 188.19 257.174 188.203 257.169C188.216 257.165 188.229 257.163 188.243 257.165H248.053C248.064 257.159 248.076 257.156 248.088 257.156C248.1 257.156 248.112 257.159 248.123 257.165C248.13 257.175 248.133 257.187 248.133 257.2C248.133 257.212 248.13 257.224 248.123 257.235L247.258 277.184C247.247 277.204 247.231 277.221 247.21 277.232C247.19 277.243 247.166 277.248 247.143 277.245ZM187.439 277.034H247.037L247.92 257.341H188.322L187.439 277.034Z" fill="white"/>
<path d="M218.983 203.121H179.05L178.724 210.557H218.647L218.983 203.121Z" fill="#4CAF4F"/>
<path d="M250.004 116.801C249.776 121.632 248.058 126.275 245.085 130.091C242.885 132.973 240.054 135.313 236.809 136.932C233.563 138.55 229.991 139.403 226.364 139.425C223.434 139.447 220.53 138.87 217.832 137.727C215.133 136.585 212.697 134.902 210.674 132.782C208.65 130.663 207.082 128.152 206.066 125.403C205.049 122.654 204.607 119.727 204.765 116.801C205.075 110.729 207.694 105.005 212.085 100.8C216.475 96.5942 222.307 94.2251 228.387 94.1767C231.319 94.1494 234.226 94.7237 236.928 95.8641C239.63 97.0045 242.069 98.6869 244.095 100.807C246.121 102.928 247.691 105.441 248.707 108.192C249.723 110.943 250.165 113.873 250.004 116.801Z" fill="white"/>
<path d="M252.132 98.9074C252.075 100.192 251.618 101.427 250.825 102.44C250.239 103.205 249.485 103.827 248.622 104.257C247.759 104.687 246.809 104.914 245.845 104.921C244.911 104.927 243.989 104.704 243.161 104.271C242.333 103.838 241.623 103.21 241.094 102.44C240.393 101.399 240.047 100.161 240.105 98.9074C240.19 97.2953 240.887 95.7765 242.054 94.6606C243.221 93.5448 244.769 92.9161 246.384 92.9026C247.162 92.8955 247.934 93.0479 248.652 93.3505C249.37 93.6531 250.018 94.0994 250.556 94.662C251.095 95.2246 251.513 95.8915 251.784 96.6216C252.055 97.3518 252.173 98.1297 252.132 98.9074Z" fill="#4CAF4F"/>
<path d="M190.097 178.731C190.055 179.443 189.744 180.112 189.228 180.604C188.711 181.095 188.028 181.373 187.315 181.381C186.971 181.385 186.63 181.318 186.312 181.185C185.995 181.052 185.708 180.855 185.47 180.607C185.231 180.359 185.046 180.064 184.926 179.741C184.806 179.419 184.754 179.075 184.772 178.731C184.81 178.018 185.12 177.347 185.637 176.854C186.154 176.362 186.84 176.086 187.554 176.082C187.898 176.079 188.238 176.147 188.555 176.28C188.872 176.414 189.158 176.611 189.396 176.859C189.634 177.107 189.819 177.401 189.94 177.723C190.06 178.045 190.114 178.388 190.097 178.731Z" fill="#263238"/>
<path d="M202.001 178.728C201.961 179.44 201.651 180.11 201.134 180.602C200.618 181.094 199.933 181.371 199.22 181.377C198.876 181.38 198.536 181.312 198.219 181.179C197.903 181.045 197.617 180.848 197.38 180.6C197.142 180.352 196.958 180.058 196.839 179.736C196.719 179.414 196.667 179.07 196.685 178.728C196.723 178.016 197.031 177.346 197.547 176.854C198.062 176.361 198.745 176.084 199.458 176.078C199.802 176.074 200.143 176.141 200.461 176.274C200.778 176.407 201.065 176.604 201.303 176.852C201.542 177.1 201.727 177.395 201.847 177.717C201.967 178.04 202.019 178.384 202.001 178.728Z" fill="#263238"/>
<path d="M213.914 178.728C213.873 179.44 213.563 180.11 213.047 180.602C212.53 181.094 211.846 181.371 211.132 181.377C210.788 181.38 210.448 181.312 210.131 181.179C209.814 181.045 209.528 180.848 209.29 180.6C209.051 180.352 208.867 180.058 208.746 179.736C208.626 179.414 208.572 179.071 208.589 178.728C208.629 178.015 208.939 177.345 209.456 176.853C209.973 176.361 210.657 176.084 211.371 176.078C211.715 176.074 212.056 176.141 212.374 176.274C212.691 176.407 212.978 176.604 213.216 176.852C213.455 177.1 213.639 177.395 213.759 177.717C213.879 178.04 213.932 178.384 213.914 178.728Z" fill="#263238"/>
<path d="M188.093 223.536C188.05 224.248 187.74 224.917 187.223 225.408C186.707 225.9 186.024 226.178 185.311 226.185C184.967 226.188 184.626 226.121 184.309 225.987C183.993 225.854 183.706 225.657 183.468 225.409C183.23 225.161 183.045 224.867 182.925 224.545C182.804 224.223 182.751 223.879 182.768 223.536C182.808 222.824 183.118 222.153 183.635 221.661C184.151 221.169 184.836 220.892 185.549 220.887C185.893 220.884 186.234 220.951 186.551 221.085C186.868 221.218 187.154 221.415 187.392 221.663C187.63 221.911 187.815 222.205 187.935 222.527C188.056 222.849 188.109 223.193 188.093 223.536Z" fill="#263238"/>
<path d="M199.996 223.536C199.956 224.247 199.647 224.916 199.133 225.408C198.618 225.899 197.935 226.177 197.223 226.185C196.879 226.189 196.538 226.123 196.221 225.99C195.903 225.857 195.616 225.66 195.378 225.412C195.14 225.163 194.955 224.869 194.835 224.546C194.715 224.224 194.662 223.88 194.68 223.536C194.721 222.824 195.031 222.153 195.547 221.661C196.064 221.169 196.748 220.892 197.462 220.887C197.805 220.884 198.146 220.951 198.462 221.085C198.779 221.219 199.064 221.416 199.302 221.664C199.539 221.912 199.723 222.206 199.843 222.528C199.962 222.85 200.014 223.193 199.996 223.536Z" fill="#263238"/>
<path d="M211.935 223.536C211.895 224.248 211.585 224.919 211.068 225.411C210.551 225.903 209.867 226.18 209.153 226.185C208.81 226.187 208.47 226.119 208.153 225.985C207.837 225.851 207.551 225.654 207.314 225.406C207.076 225.158 206.891 224.865 206.77 224.543C206.649 224.222 206.594 223.879 206.61 223.536C206.652 222.825 206.963 222.155 207.479 221.664C207.995 221.172 208.679 220.895 209.392 220.887C209.736 220.883 210.077 220.949 210.395 221.082C210.712 221.215 210.999 221.412 211.237 221.661C211.476 221.909 211.66 222.203 211.78 222.526C211.9 222.849 211.953 223.192 211.935 223.536Z" fill="#263238"/>
<path d="M223.822 223.536C223.779 224.248 223.469 224.917 222.952 225.408C222.436 225.9 221.753 226.178 221.04 226.185C220.697 226.187 220.356 226.118 220.04 225.985C219.724 225.851 219.438 225.654 219.2 225.406C218.962 225.158 218.777 224.865 218.656 224.543C218.536 224.222 218.481 223.879 218.497 223.536C218.539 222.824 218.85 222.155 219.366 221.664C219.882 221.172 220.566 220.894 221.278 220.887C221.622 220.884 221.963 220.951 222.28 221.085C222.597 221.218 222.883 221.415 223.121 221.663C223.359 221.911 223.544 222.205 223.665 222.527C223.785 222.849 223.838 223.193 223.822 223.536Z" fill="#263238"/>
<path d="M235.778 223.536C235.735 224.248 235.425 224.917 234.908 225.408C234.392 225.9 233.709 226.178 232.996 226.185C232.652 226.189 232.31 226.123 231.993 225.99C231.676 225.857 231.389 225.66 231.15 225.412C230.912 225.163 230.727 224.869 230.607 224.546C230.487 224.224 230.435 223.88 230.453 223.536C230.493 222.824 230.803 222.153 231.32 221.661C231.836 221.169 232.521 220.892 233.234 220.887C233.578 220.884 233.919 220.951 234.236 221.085C234.553 221.218 234.839 221.415 235.077 221.663C235.315 221.911 235.5 222.205 235.621 222.527C235.741 222.849 235.794 223.193 235.778 223.536Z" fill="#263238"/>
<path d="M233.971 115.622C237.667 112.007 237.863 106.214 234.409 102.682C230.954 99.1494 225.158 99.216 221.462 102.83C217.766 106.445 217.57 112.238 221.024 115.771C224.478 119.303 230.274 119.236 233.971 115.622Z" fill="#4CAF4F"/>
<path d="M245.085 130.092C242.885 132.974 240.054 135.314 236.809 136.932C233.563 138.55 229.991 139.403 226.364 139.426C222.848 139.456 219.379 138.62 216.262 136.992C213.145 135.364 210.476 132.995 208.491 130.092C212.783 125.818 219.574 123.027 227.097 123.027C234.621 123.027 241.173 125.818 245.085 130.092Z" fill="#4CAF4F"/>
<path opacity="0.1" d="M233.971 115.622C237.667 112.007 237.863 106.214 234.409 102.682C230.954 99.1494 225.158 99.216 221.462 102.83C217.766 106.445 217.57 112.238 221.024 115.771C224.478 119.303 230.274 119.236 233.971 115.622Z" fill="white"/>
<path opacity="0.1" d="M245.085 130.092C242.885 132.974 240.054 135.314 236.809 136.932C233.563 138.55 229.991 139.403 226.364 139.426C222.848 139.456 219.379 138.62 216.262 136.992C213.145 135.364 210.476 132.995 208.491 130.092C212.783 125.818 219.574 123.027 227.097 123.027C234.621 123.027 241.173 125.818 245.085 130.092Z" fill="white"/>
<path d="M115.16 191.03C114.322 192.866 113.439 194.889 112.67 196.849C111.902 198.809 111.116 200.832 110.436 202.845C109.048 206.813 107.99 210.889 107.275 215.031L107.08 216.329C107.062 216.552 107.083 216.776 107.142 216.992C107.351 217.724 107.679 218.416 108.114 219.04C109.248 220.657 110.563 222.139 112.034 223.456C113.586 224.899 115.213 226.257 116.909 227.527C118.604 228.834 120.388 230.105 122.146 231.306L120.494 234.406C116.298 232.577 112.315 230.294 108.617 227.597C106.644 226.158 104.863 224.473 103.319 222.582C102.403 221.456 101.689 220.18 101.208 218.811C100.928 217.955 100.785 217.061 100.784 216.162C100.784 215.95 100.784 215.641 100.784 215.49V215.058L100.872 214.175C101.379 209.574 102.346 205.036 103.76 200.628C104.449 198.456 105.182 196.293 106.021 194.182C106.86 192.072 107.725 190.005 108.794 187.859L115.16 191.03Z" fill="#E58A7B"/>
<path d="M120.9 230.759L127.144 227.598L125.528 234.45C125.528 234.45 121.245 235.651 119.258 233.567L120.9 230.759Z" fill="#E58A7B"/>
<path d="M132.857 228.719L131.197 234.388L125.527 234.45L127.143 227.598L132.857 228.719Z" fill="#E58A7B"/>
<path d="M141.67 157.969C142.004 159.193 142.469 160.377 143.056 161.501C142.885 161.696 142.664 161.84 142.416 161.92C142.169 161.999 141.905 162.01 141.652 161.951L141.67 157.969Z" fill="#DF5753"/>
<path d="M141.485 158.023C141.85 158.023 142.147 157.569 142.147 157.008C142.147 156.447 141.85 155.992 141.485 155.992C141.119 155.992 140.822 156.447 140.822 157.008C140.822 157.569 141.119 158.023 141.485 158.023Z" fill="#263238"/>
<path d="M141.29 156.028L142.632 155.648C142.632 155.648 141.979 156.69 141.29 156.028Z" fill="#263238"/>
<path d="M124.424 164.449C125.228 168.555 126.031 176.088 123.152 178.834C123.152 178.834 124.283 183.002 131.921 183.002C140.319 183.002 135.93 178.834 135.93 178.834C131.347 177.739 131.462 174.34 132.266 171.143L124.424 164.449Z" fill="#E58A7B"/>
<path d="M122.189 155.09C122.613 161.951 122.648 164.865 126.11 168.389C131.329 173.687 139.665 171.674 141.299 164.856C142.773 158.675 141.837 148.502 135.117 145.773C133.642 145.166 132.036 144.944 130.452 145.13C128.867 145.316 127.357 145.903 126.062 146.836C124.768 147.769 123.733 149.016 123.055 150.461C122.378 151.905 122.079 153.498 122.189 155.09Z" fill="#E58A7B"/>
<path d="M122.869 147.374C119.425 148.627 114.833 147.691 116.635 158.315C118.542 169.565 115.61 173.265 115.61 173.265C115.61 173.265 128.671 176.047 142.005 173.097C142.005 173.097 137.934 165.98 139.073 160.734C140.53 154.111 139.382 151.665 139.382 151.665C139.382 151.665 127.708 145.607 122.869 147.374Z" fill="#263238"/>
<path d="M137.44 158.666C137.444 159.971 137.818 161.248 138.518 162.348C139.454 163.779 140.558 163.232 140.831 161.713C141.079 160.379 140.893 158.021 139.701 157.103C138.509 156.185 137.458 157.085 137.44 158.666Z" fill="#E58A7B"/>
<path d="M119.876 148.529C118.887 145.747 123.603 141.464 133.581 143.231C143.56 144.997 143.992 153.306 143.992 153.306L141.979 150.904L142.067 153.43L131.815 155.399L119.876 148.529Z" fill="#263238"/>
<path d="M120.723 179.303C120.665 178.9 120.765 178.49 121.005 178.16C121.244 177.83 121.602 177.607 122.004 177.537C125.112 177.025 132.177 175.983 135.727 176.477C138.376 176.848 139.065 178.385 139.18 179.648C139.197 179.869 139.168 180.091 139.093 180.3C139.018 180.509 138.899 180.699 138.744 180.858C138.589 181.017 138.402 181.141 138.196 181.221C137.989 181.302 137.767 181.338 137.546 181.325L122.198 180.637C121.836 180.618 121.492 180.476 121.223 180.233C120.954 179.99 120.778 179.661 120.723 179.303Z" fill="#4CAF4F"/>
<path opacity="0.6" d="M120.723 179.303C120.665 178.9 120.765 178.49 121.005 178.16C121.244 177.83 121.602 177.607 122.004 177.537C125.112 177.025 132.177 175.983 135.727 176.477C138.376 176.848 139.065 178.385 139.18 179.648C139.197 179.869 139.168 180.091 139.093 180.3C139.018 180.509 138.899 180.699 138.744 180.858C138.589 181.017 138.402 181.141 138.196 181.221C137.989 181.302 137.767 181.338 137.546 181.325L122.198 180.637C121.836 180.618 121.492 180.476 121.223 180.233C120.954 179.99 120.778 179.661 120.723 179.303Z" fill="black"/>
<path d="M129.599 333.574L135.294 337.531L144.823 324.611L139.127 320.664L129.599 333.574Z" fill="#E58A7B"/>
<path d="M116.317 333.321L122.331 336.747L130.764 323.086L124.751 319.66L116.317 333.321Z" fill="#E58A7B"/>
<path d="M144.814 324.611L139.904 331.27L134.208 327.322L139.118 320.664L144.814 324.611Z" fill="#CF6F64"/>
<path d="M124.741 319.66L130.764 323.095L126.419 330.133L120.396 326.698L124.741 319.66Z" fill="#CF6F64"/>
<path d="M134.402 222.434C134.402 222.434 156.638 250.453 152.461 277.254C149.096 298.898 129.58 328.207 129.58 328.207L120.405 323.651C126.873 310.692 132.391 297.281 136.919 283.524C138.315 279.253 138.722 274.721 138.11 270.269C137.499 265.817 135.883 261.563 133.386 257.827C122.119 241.375 104.069 251.169 116.211 222.434H134.402Z" fill="#4CAF4F"/>
<path opacity="0.6" d="M134.402 222.434C134.402 222.434 156.638 250.453 152.461 277.254C149.096 298.898 129.58 328.207 129.58 328.207L120.405 323.651C126.873 310.692 132.391 297.281 136.919 283.524C138.315 279.253 138.722 274.721 138.11 270.269C137.499 265.817 135.883 261.563 133.386 257.827C122.119 241.375 104.069 251.169 116.211 222.434H134.402Z" fill="black"/>
<path opacity="0.4" d="M145.308 240.429L142.076 237.215C142.076 237.471 148.337 276.123 150.094 286.984C151.131 283.811 151.926 280.564 152.47 277.271C154.536 264.122 150.218 250.69 145.308 240.429Z" fill="black"/>
<path d="M144.329 222.434C144.329 222.434 171.103 257.65 171.862 278.764C172.489 296.426 142.721 330.644 142.721 330.644L134.067 325.046C134.067 325.046 151.49 300.744 155.879 280.893C154.184 261.218 118.331 222.434 118.331 222.434H144.329Z" fill="#4CAF4F"/>
<path opacity="0.6" d="M144.329 222.434C144.329 222.434 171.103 257.65 171.862 278.764C172.489 296.426 142.721 330.644 142.721 330.644L134.067 325.046C134.067 325.046 151.49 300.744 155.879 280.893C154.184 261.218 118.331 222.434 118.331 222.434H144.329Z" fill="black"/>
<path d="M111.204 180.407C108.343 181.087 105.597 191.489 105.597 191.489L116.785 198.96C116.785 198.96 120.512 190.73 119.205 187.127C117.854 183.374 114.798 179.55 111.204 180.407Z" fill="#4CAF4F"/>
<path opacity="0.2" d="M113.394 187.109L112.617 196.178L116.776 198.969C117.925 196.383 118.775 193.676 119.311 190.898L113.394 187.109Z" fill="black"/>
<path d="M147.639 180.609C147.639 180.609 150.942 181.766 144.328 222.422H116.193C116.67 210.943 116.679 203.878 111.204 180.406C115.144 179.594 119.137 179.069 123.152 178.834C127.406 178.529 131.676 178.529 135.93 178.834C141.423 179.338 147.639 180.609 147.639 180.609Z" fill="#4CAF4F"/>
<path d="M150.5 187.11C151.136 188.876 151.807 190.775 152.514 192.603C153.22 194.431 153.891 196.312 154.607 198.166L156.77 203.712L157.318 205.098L157.6 205.787L157.733 206.131C157.733 206.193 157.733 206.193 157.733 206.184C157.571 205.957 157.36 205.77 157.114 205.637C156.765 205.431 156.371 205.313 155.966 205.292C155.63 205.282 155.296 205.345 154.986 205.478C154.58 205.663 154.58 205.743 154.589 205.734C154.662 205.675 154.728 205.607 154.783 205.531C155.272 204.889 155.695 204.2 156.046 203.473C156.461 202.661 156.858 201.795 157.256 200.921C158.033 199.155 158.748 197.327 159.463 195.482C160.179 193.636 160.859 191.773 161.521 189.892L163.534 184.258L166.934 185.141C166.263 189.168 165.398 193.088 164.356 197.08C163.852 199.067 163.261 201.036 162.589 203.023C162.254 204.021 161.883 205.01 161.459 206.025C161.017 207.128 160.473 208.186 159.834 209.187C159.599 209.524 159.34 209.842 159.057 210.14C158.606 210.628 158.059 211.015 157.45 211.28C156.91 211.512 156.324 211.62 155.737 211.598C155.079 211.573 154.437 211.382 153.874 211.041C153.208 210.626 152.656 210.053 152.266 209.372C152.134 209.143 152.019 208.913 151.94 208.745L151.772 208.41L151.436 207.721L150.765 206.352C149.882 204.515 148.999 202.661 148.231 200.798C147.463 198.934 146.65 197.045 145.891 195.146C145.131 193.247 144.451 191.349 143.807 189.3L150.5 187.11Z" fill="#E58A7B"/>
<path d="M147.639 180.612C151.022 181.416 154.828 191.412 154.828 191.412L144.769 199.969C144.769 199.969 138.261 189.072 139.577 185.478C140.946 181.734 143.224 179.561 147.639 180.612Z" fill="#4CAF4F"/>
<path d="M165.133 181.098L168.666 178.148L171.121 181.972L169.31 185.16C169.31 185.16 166.432 187.809 163.888 186.458C163.485 185.551 163.388 184.537 163.613 183.569C163.837 182.602 164.371 181.734 165.133 181.098Z" fill="#E58A7B"/>
<path d="M175.041 178.157L174.776 179.12L169.186 180.056L168.639 178.148L175.041 178.157Z" fill="#E58A7B"/>
<path d="M143.41 331.094L133.325 324.577L135.135 321.434L146.465 328.401L143.41 331.094Z" fill="#4CAF4F"/>
<path d="M126.279 336.288C125.394 336.18 124.544 335.879 123.788 335.405C123.757 335.394 123.73 335.374 123.711 335.347C123.692 335.32 123.682 335.288 123.682 335.255C123.682 335.222 123.692 335.19 123.711 335.163C123.73 335.136 123.757 335.116 123.788 335.105C124.062 335.017 126.438 334.284 127.126 334.849C127.204 334.913 127.263 334.997 127.297 335.092C127.331 335.186 127.339 335.289 127.321 335.388C127.308 335.547 127.256 335.7 127.168 335.833C127.079 335.966 126.959 336.074 126.817 336.147C126.652 336.237 126.467 336.286 126.279 336.288ZM124.292 335.317C125.396 335.882 126.279 336.085 126.702 335.873C126.795 335.822 126.872 335.748 126.928 335.659C126.984 335.569 127.016 335.466 127.02 335.361C127.02 335.22 127.02 335.158 126.941 335.123C126.57 334.822 125.245 335.052 124.274 335.317H124.292Z" fill="#263238"/>
<path d="M123.85 335.466C123.803 335.465 123.759 335.446 123.726 335.413C123.713 335.389 123.706 335.361 123.706 335.334C123.706 335.306 123.713 335.279 123.726 335.254C123.726 335.175 124.3 333.258 125.201 332.826C125.316 332.773 125.441 332.746 125.567 332.746C125.694 332.746 125.819 332.773 125.934 332.826C126.058 332.865 126.165 332.944 126.239 333.052C126.312 333.159 126.348 333.288 126.34 333.417C126.278 334.212 124.662 335.307 123.92 335.493L123.85 335.466ZM125.563 333.055C125.477 333.058 125.393 333.079 125.316 333.117C124.768 333.382 124.318 334.415 124.097 335.042C124.874 334.715 125.943 333.85 125.978 333.364C125.978 333.285 125.978 333.188 125.775 333.099C125.709 333.064 125.637 333.04 125.563 333.029V333.055Z" fill="#263238"/>
<path d="M138.88 340.102C137.882 340.102 136.495 338.822 135.736 338.036C135.716 338.009 135.706 337.976 135.706 337.943C135.706 337.91 135.716 337.877 135.736 337.85C135.753 337.822 135.778 337.799 135.808 337.783C135.837 337.768 135.87 337.76 135.904 337.762C136.257 337.762 139.321 338.221 139.754 339.087C139.8 339.164 139.824 339.253 139.824 339.343C139.824 339.433 139.8 339.521 139.754 339.599C139.689 339.733 139.591 339.85 139.469 339.936C139.347 340.023 139.205 340.077 139.056 340.093L138.88 340.102ZM136.319 338.159C137.431 339.237 138.412 339.837 138.968 339.767C139.065 339.754 139.158 339.717 139.238 339.66C139.318 339.603 139.383 339.528 139.427 339.44C139.447 339.41 139.457 339.374 139.457 339.338C139.457 339.302 139.447 339.267 139.427 339.237C139.198 338.76 137.564 338.354 136.319 338.159Z" fill="#263238"/>
<path d="M136.416 338.114C136.218 338.12 136.02 338.105 135.824 338.07C135.797 338.066 135.771 338.055 135.75 338.038C135.728 338.021 135.711 337.998 135.701 337.973C135.688 337.947 135.681 337.918 135.681 337.889C135.681 337.86 135.688 337.831 135.701 337.805C135.754 337.743 136.946 336.304 138.076 336.207C138.396 336.182 138.713 336.283 138.959 336.489C139.304 336.79 139.286 337.055 139.198 337.222C138.977 337.823 137.449 338.114 136.416 338.114ZM136.186 337.788C137.175 337.84 138.756 337.514 138.959 337.081C138.959 337.081 139.03 336.94 138.8 336.746C138.709 336.666 138.602 336.606 138.487 336.57C138.371 336.533 138.25 336.521 138.129 336.534C137.368 336.746 136.69 337.187 136.186 337.796V337.788Z" fill="#263238"/>
<path d="M124.088 334.51L116.599 332.391C116.47 332.352 116.331 332.362 116.209 332.419C116.087 332.476 115.99 332.576 115.937 332.7L113.411 338.378C113.352 338.523 113.324 338.68 113.33 338.837C113.335 338.994 113.374 339.148 113.443 339.289C113.512 339.43 113.611 339.554 113.731 339.655C113.852 339.755 113.993 339.828 114.144 339.87C116.794 340.559 118.065 340.753 121.359 341.698C123.39 342.263 126.287 343.314 129.086 344.109C131.885 344.904 132.821 342.175 131.735 341.592C126.825 338.996 126.437 337.177 125.094 335.234C124.854 334.882 124.498 334.626 124.088 334.51Z" fill="#4CAF4F"/>
<path d="M135.939 337.001L129.545 332.585C129.437 332.506 129.303 332.47 129.17 332.483C129.036 332.496 128.912 332.558 128.821 332.656L124.583 337.213C124.479 337.33 124.402 337.469 124.357 337.619C124.311 337.769 124.298 337.926 124.318 338.082C124.338 338.237 124.391 338.386 124.473 338.52C124.555 338.653 124.665 338.767 124.794 338.855C127.046 340.365 128.212 340.975 131.029 342.926C132.795 344.127 136.213 346.794 138.597 348.454C140.981 350.114 142.756 347.836 141.908 346.935C138.111 342.882 137.281 340.339 136.654 338.034C136.545 337.616 136.292 337.25 135.939 337.001Z" fill="#4CAF4F"/>
<path d="M130.755 328.791L119.231 323.06L120.424 319.934L132.734 325.974L130.755 328.791Z" fill="#4CAF4F"/>
<path d="M115.769 220.774L114.798 223.317C114.701 223.511 114.93 223.714 115.257 223.714H144.469C144.725 223.714 144.937 223.591 144.955 223.432L145.202 220.906C145.202 220.738 144.999 220.588 144.725 220.588H116.228C116.143 220.58 116.056 220.593 115.976 220.625C115.896 220.657 115.825 220.708 115.769 220.774Z" fill="#4CAF4F"/>
<path opacity="0.4" d="M115.769 220.774L114.798 223.317C114.701 223.511 114.93 223.714 115.257 223.714H144.469C144.725 223.714 144.937 223.591 144.955 223.432L145.202 220.906C145.202 220.738 144.999 220.588 144.725 220.588H116.228C116.143 220.58 116.056 220.593 115.976 220.625C115.896 220.657 115.825 220.708 115.769 220.774Z" fill="white"/>
<path d="M120.371 223.96H119.602C119.452 223.96 119.337 223.881 119.346 223.784L119.708 220.508C119.708 220.419 119.85 220.34 120 220.34H120.768C120.918 220.34 121.033 220.419 121.024 220.508L120.662 223.784C120.653 223.881 120.521 223.96 120.371 223.96Z" fill="#4CAF4F"/>
<path d="M138.385 223.96H137.626C137.476 223.96 137.361 223.881 137.37 223.784L137.723 220.508C137.723 220.419 137.873 220.34 138.023 220.34H138.783C138.933 220.34 139.056 220.419 139.039 220.508L138.685 223.784C138.641 223.881 138.544 223.96 138.385 223.96Z" fill="#4CAF4F"/>
<g style="mix-blend-mode:multiply">
<path d="M119.699 373.508C132.765 373.508 143.357 372.741 143.357 371.795C143.357 370.849 132.765 370.082 119.699 370.082C106.634 370.082 96.042 370.849 96.042 371.795C96.042 372.741 106.634 373.508 119.699 373.508Z" fill="#F5F5F5"/>
</g>
<path d="M134.111 369.374C129.925 368.156 125.28 366.593 122.472 364.959C122.393 364.906 122.304 364.88 122.225 364.835V345.885H130.693C131.336 345.847 131.94 345.564 132.382 345.096C132.824 344.627 133.07 344.008 133.07 343.364C133.07 342.72 132.824 342.1 132.382 341.631C131.94 341.163 131.336 340.881 130.693 340.842H122.269V254.461H117.183V340.842H108.767C108.423 340.822 108.079 340.872 107.756 340.99C107.432 341.107 107.136 341.29 106.885 341.526C106.635 341.762 106.435 342.047 106.299 342.363C106.162 342.679 106.092 343.019 106.092 343.364C106.092 343.708 106.162 344.048 106.299 344.364C106.435 344.681 106.635 344.965 106.885 345.201C107.136 345.438 107.432 345.62 107.756 345.737C108.079 345.855 108.423 345.905 108.767 345.885H117.183V364.809C117.103 364.809 117.024 364.879 116.944 364.932C114.092 366.593 109.482 368.156 105.296 369.348C105.014 369.433 104.771 369.617 104.612 369.866C104.453 370.115 104.389 370.413 104.43 370.705C104.472 370.998 104.617 371.266 104.839 371.461C105.061 371.655 105.345 371.764 105.641 371.767H133.766C134.049 371.748 134.316 371.633 134.523 371.44C134.731 371.248 134.866 370.99 134.906 370.71C134.946 370.43 134.889 370.145 134.745 369.902C134.6 369.658 134.376 369.472 134.111 369.374Z" fill="#E0E0E0"/>
<path d="M135.409 245.668H104.007C101.481 245.668 99.4326 247.716 99.4326 250.242V259.576C99.4326 262.103 101.481 264.151 104.007 264.151H135.409C137.935 264.151 139.983 262.103 139.983 259.576V250.242C139.983 247.716 137.935 245.668 135.409 245.668Z" fill="#4CAF4F"/>
<path d="M103.716 264.156V265.763C103.716 267.088 105.155 268.165 106.921 268.165H132.53C134.296 268.165 135.736 267.088 135.736 265.763V264.156H103.716Z" fill="#4CAF4F"/>
<path opacity="0.3" d="M103.716 264.156V265.763C103.716 267.088 105.155 268.165 106.921 268.165H132.53C134.296 268.165 135.736 267.088 135.736 265.763V264.156H103.716Z" fill="white"/>
</svg>
