<svg width="48" height="48" viewBox="0 0 48 48" fill="none" xmlns="http://www.w3.org/2000/svg">
<path d="M23.2959 29.5455L23.9032 29.0346C25.7083 27.5161 27.0027 25.4793 27.6111 23.2003C28.2194 20.9213 28.1122 18.5104 27.3041 16.2944C26.4959 14.0783 25.0259 12.1644 23.0933 10.8121C21.1606 9.45971 18.8589 8.73438 16.5001 8.73438C14.1413 8.73438 11.8396 9.45971 9.90694 10.8121C7.9743 12.1644 6.50426 14.0783 5.69612 16.2944C4.88797 18.5104 4.78081 20.9213 5.38916 23.2003C5.99751 25.4793 7.29195 27.5161 9.09698 29.0346L9.70433 29.5455L8.98125 29.8727C6.00808 31.2182 3.44959 33.3355 1.57179 36.0046L23.2959 29.5455ZM23.2959 29.5455L24.019 29.8727M23.2959 29.5455L24.019 29.8727M24.019 29.8727C26.9923 31.2183 29.5508 33.3357 31.4287 36.0049L31.4358 36.0151L31.4435 36.0249C31.5893 36.2117 31.6957 36.4263 31.7562 36.6556C31.8166 36.8848 31.8298 37.1239 31.795 37.3585C31.7602 37.593 31.6782 37.818 31.5538 38.0198C31.4294 38.2216 31.2653 38.3961 31.0714 38.5326C30.8776 38.669 30.658 38.7647 30.4261 38.8138C30.1941 38.8628 29.9547 38.8643 29.7221 38.8179C29.4896 38.7716 29.2689 38.6786 29.0735 38.5444C28.878 38.4102 28.7119 38.2377 28.5851 38.0374L28.5787 38.0272L28.5718 38.0174C27.2111 36.0793 25.4037 34.4974 23.3026 33.4053C21.2014 32.3132 18.8682 31.743 16.5001 31.743C14.1321 31.743 11.7988 32.3132 9.69765 33.4053C7.59647 34.4974 5.78912 36.0793 4.42839 38.0174L4.42728 38.019C4.26732 38.2487 4.05404 38.4362 3.80573 38.5655C3.55741 38.6947 3.28147 38.7618 3.00154 38.7609L2.99848 38.761C2.63947 38.7621 2.28918 38.6504 1.99711 38.4417L1.9947 38.44M24.019 29.8727L1.9947 38.44M1.9947 38.44C1.61613 38.1727 1.359 37.7663 1.27972 37.3097C1.20046 36.8533 1.30541 36.3841 1.57154 36.0049L1.9947 38.44ZM46.2902 38.4375L46.2902 38.4376C46.4788 38.3068 46.6395 38.1399 46.7629 37.9465C46.8864 37.7531 46.9702 37.5371 47.0095 37.311C47.0487 37.085 47.0427 36.8534 46.9916 36.6297C46.9406 36.406 46.8456 36.1947 46.7121 36.008L46.7099 36.0049C44.8321 33.3357 42.2735 31.2183 39.3002 29.8727L38.5751 29.5446L39.1854 29.0338C40.9953 27.5189 42.2943 25.483 42.9056 23.2033C43.5169 20.9236 43.4108 18.5109 42.6017 16.2937C41.7926 14.0766 40.3198 12.1626 38.3839 10.8124C36.448 9.46231 34.143 8.7416 31.7828 8.74845L31.7805 8.74846C30.7302 8.74671 29.6847 8.89174 28.6745 9.17935L28.6655 9.1819L28.6655 9.18182C28.4411 9.2412 28.2308 9.34462 28.0468 9.48607C27.8627 9.62751 27.7087 9.80416 27.5936 10.0057C27.4785 10.2073 27.4046 10.4297 27.3763 10.6601C27.348 10.8905 27.3658 11.1242 27.4286 11.3476C27.4915 11.571 27.5982 11.7797 27.7425 11.9615L27.364 12.2619L27.7425 11.9615C27.8868 12.1433 28.0658 12.2946 28.2691 12.4066C28.4725 12.5185 28.696 12.5889 28.9268 12.6136C29.1576 12.6383 29.391 12.6169 29.6134 12.5506L29.6192 12.5489L29.6192 12.5489C30.3227 12.3482 31.0508 12.2471 31.7823 12.2485M46.2902 38.4375L43.4439 38.3047L43.8525 38.0166C43.8524 38.0164 43.8523 38.0162 43.8521 38.0161C42.4886 36.0818 40.6809 34.5031 38.5806 33.4124C36.4802 32.3217 34.1487 31.7511 31.7819 31.7485H31.7814C31.3172 31.7485 30.8721 31.5641 30.5439 31.2359C30.2157 30.9077 30.0314 30.4626 30.0314 29.9985C30.0314 29.5343 30.2157 29.0892 30.5439 28.761C30.8721 28.4328 31.3172 28.2485 31.7814 28.2485C33.9031 28.2485 35.9379 27.4056 37.4382 25.9053C38.9385 24.405 39.7814 22.3702 39.7814 20.2485C39.7814 18.1267 38.9385 16.0919 37.4382 14.5916C35.9381 13.0915 33.9037 12.2487 31.7823 12.2485M46.2902 38.4375L46.2844 38.4417M46.2902 38.4375L46.2844 38.4417M31.7823 12.2485L31.7814 12.7485V12.2485C31.7817 12.2485 31.782 12.2485 31.7823 12.2485ZM39.5064 29.4172L39.7125 28.9617C39.7813 28.9928 39.8498 29.0243 39.9182 29.0562C39.7839 29.1795 39.6466 29.2998 39.5064 29.4172ZM39.5064 29.4172L39.8273 29.8006C39.8864 29.7512 39.9449 29.7012 40.003 29.6508C39.8387 29.5706 39.6732 29.4927 39.5064 29.4172ZM46.2844 38.4417C45.9924 38.6503 45.6424 38.762 45.2836 38.761L46.2844 38.4417ZM9.84835 15.8039C8.9693 17.1195 8.50011 18.6662 8.50011 20.2485C8.50011 22.3702 9.34296 24.405 10.8433 25.9053C12.3435 27.4056 14.3784 28.2485 16.5001 28.2485C18.0824 28.2485 19.6291 27.7793 20.9447 26.9002C22.2603 26.0212 23.2856 24.7717 23.8911 23.3099C24.4966 21.8481 24.6551 20.2396 24.3464 18.6877C24.0377 17.1359 23.2758 15.7104 22.157 14.5916C21.0381 13.4728 19.6127 12.7109 18.0608 12.4022C16.509 12.0935 14.9004 12.2519 13.4386 12.8574C11.9768 13.4629 10.7274 14.4883 9.84835 15.8039Z" fill="#4CAF4F" stroke="#4CAF4F"/>
</svg>
