<svg width="65" height="56" viewBox="0 0 65 56" fill="none" xmlns="http://www.w3.org/2000/svg">
<path d="M65 38C65 47.9411 56.9411 56 47 56L20 56C17.2386 56 15 53.7614 15 51L15 17C15 11.4772 19.4772 7 25 7L60 7C62.7614 7 65 9.23858 65 12L65 38Z" fill="#E8F5E9"/>
<path d="M28.3117 23.6461C28.0709 23.6461 27.8473 23.5799 27.6487 23.4734V23.4762C27.6487 23.8551 27.5014 24.2108 27.2343 24.4773C26.9671 24.7445 26.6116 24.8917 26.2332 24.8917C25.9889 24.8917 25.7625 24.8239 25.5617 24.7146C25.5415 25.0611 25.4029 25.3851 25.1558 25.6325C24.8886 25.8996 24.5331 26.0469 24.1545 26.0469C23.4022 26.0469 22.7913 25.4555 22.7473 24.7143C22.5145 24.8401 22.2513 24.9061 21.9799 24.8887C21.2398 24.8401 20.6603 24.2007 20.6603 23.4326V17.066L19.9353 18.322C19.6592 18.8023 19.1423 19.1006 18.5858 19.1006C18.3147 19.1006 18.0468 19.0294 17.8095 18.8935C17.5141 18.7222 17.3028 18.4473 17.2149 18.1184C17.1265 17.7892 17.1722 17.445 17.3431 17.15C17.3433 17.15 19.715 13.0428 19.8597 12.7905C19.8769 12.7526 19.9259 12.6426 19.9676 12.5488C20.0075 12.4593 20.0416 12.3674 20.0744 12.2751C20.7896 10.2558 22.5607 9.00145 24.6966 9.00145C27.4703 9.00145 29.7268 11.4483 29.7268 14.456L29.727 22.2304C29.727 22.6088 29.58 22.9643 29.3131 23.2317C29.0459 23.4989 28.6904 23.6461 28.3116 23.6461L28.3117 23.6461ZM24.6966 9.75359C22.8613 9.75359 21.3984 10.7902 20.7833 12.5266C20.744 12.6369 20.703 12.7471 20.6552 12.8546C20.5164 13.1658 20.5164 13.1658 20.4773 13.2105L20.4721 13.2061C20.2784 13.5715 19.7031 14.5678 17.9943 17.5265C17.9241 17.6478 17.9055 17.7887 17.9413 17.9234C17.9776 18.0582 18.0645 18.1718 18.1849 18.2413C18.5586 18.4559 19.0703 18.3174 19.2833 17.9463L20.7108 15.4749C20.7961 15.3276 20.9685 15.2553 21.1339 15.3C21.2983 15.3441 21.4126 15.4932 21.4126 15.6633V23.4329C21.4126 23.7994 21.6892 24.1158 22.0292 24.1382C22.2252 24.1486 22.408 24.0829 22.5454 23.9457C22.6702 23.8209 22.739 23.6545 22.739 23.4767V18.3953C22.739 18.1875 22.9075 18.019 23.1153 18.019C23.3231 18.019 23.4915 18.1873 23.4915 18.3953L23.4913 24.6317C23.4913 24.9973 23.7889 25.2949 24.1545 25.2949C24.3321 25.2949 24.499 25.2261 24.6241 25.1012C24.7489 24.9761 24.8177 24.8093 24.8177 24.6317V18.3953C24.8177 18.1875 24.9859 18.019 25.194 18.019C25.4018 18.019 25.5702 18.1873 25.5702 18.3953L25.57 23.4182V23.4766C25.57 23.8421 25.8675 24.1396 26.2334 24.1396C26.4108 24.1396 26.5772 24.0706 26.703 23.9452C26.8278 23.8206 26.8966 23.6543 26.8966 23.4764V18.395C26.8966 18.1872 27.0649 18.0188 27.2729 18.0188C27.4807 18.0188 27.6491 18.187 27.6491 18.395L27.6487 22.2306C27.6487 22.5965 27.9462 22.894 28.3116 22.894C28.4895 22.894 28.6558 22.825 28.7807 22.7004C28.906 22.575 28.9746 22.4082 28.9746 22.2306L28.9748 14.4562C28.9748 11.8635 27.0557 9.75367 24.6966 9.75367L24.6966 9.75359Z" fill="#103E13"/>
<path d="M13.5287 29.048L18.9885 25.7727C19.6467 25.3774 20.4937 25.5454 20.9159 26.1553C21.07 26.3775 21.1486 26.6364 21.1609 26.9001C21.3645 26.7938 21.5859 26.7361 21.8114 26.7361C21.9268 26.7361 22.0427 26.7505 22.1572 26.779C22.5241 26.8706 22.8332 27.0999 23.0276 27.424C23.2222 27.7487 23.2789 28.1291 23.1873 28.4955C23.1027 28.8346 22.8966 29.1199 22.6098 29.3157C22.8103 29.4339 22.9833 29.5953 23.1062 29.8008C23.3008 30.1254 23.3576 30.5057 23.2662 30.8725C23.1746 31.2389 22.9453 31.548 22.6207 31.7429L22.6188 31.744C22.8158 31.8621 22.9856 32.0218 23.1072 32.2242C23.302 32.5488 23.3588 32.9293 23.2672 33.2961C23.1753 33.6627 22.946 33.9718 22.6219 34.1664L15.9555 38.1657C14.7113 38.9119 13.2729 39.1694 11.906 38.8902C10.5268 38.6084 9.3846 37.8157 8.6901 36.6579C7.59101 34.8261 7.75573 32.6619 9.11912 31.0101C9.18156 30.9347 9.24305 30.8579 9.29889 30.7783C9.35802 30.6942 9.42705 30.5952 9.45061 30.5613C9.59173 30.3092 11.8945 26.1603 11.8943 26.1608C12.1268 25.7412 12.5626 25.5037 13.0122 25.5039C13.2218 25.5039 13.4346 25.5555 13.6308 25.6644C13.8679 25.7968 14.0669 25.9898 14.2062 26.2223C14.4924 26.6994 14.5026 27.2964 14.233 27.7796L13.5287 29.048ZM13.5615 26.6091C13.4884 26.4873 13.3881 26.3902 13.2653 26.3214C13.0116 26.181 12.6921 26.2724 12.5524 26.5252C10.9047 29.4937 10.343 30.5054 10.1262 30.8654L10.1312 30.8666C10.113 30.9269 10.113 30.9269 9.91466 31.2103C9.84727 31.3062 9.774 31.3983 9.69932 31.489C8.52695 32.9094 8.39083 34.6969 9.33485 36.2709C9.9196 37.2458 10.886 37.9142 12.0562 38.1531C13.2392 38.3937 14.4859 38.1699 15.5681 37.5206L22.2351 33.5211C22.3873 33.4299 22.4947 33.285 22.5376 33.1133C22.5805 32.9417 22.5538 32.7634 22.4624 32.6112C22.2744 32.2979 21.8661 32.1949 21.5528 32.3836L18.2639 34.3568C18.0858 34.4637 17.8544 34.4062 17.7477 34.2279C17.6407 34.0498 17.6984 33.8187 17.8765 33.7117L21.1657 31.7386L22.2339 31.0977C22.3861 31.0063 22.4938 30.8614 22.5367 30.6901C22.5795 30.5184 22.5529 30.3398 22.4615 30.1878C22.2733 29.8743 21.865 29.7723 21.5519 29.9603L17.1945 32.5742C17.0159 32.6814 16.7852 32.6235 16.6783 32.4454C16.5713 32.2673 16.6293 32.0361 16.8072 31.9292L22.155 28.7211C22.3072 28.6296 22.4146 28.485 22.4575 28.3132C22.5004 28.1417 22.4738 27.9634 22.3826 27.8112C22.2914 27.6592 22.1465 27.5518 21.9748 27.5089C21.8021 27.466 21.6244 27.4927 21.4727 27.5836L20.4827 28.1775C20.4825 28.1775 20.4825 28.1778 20.4823 28.1778H20.482L16.1249 30.7917C15.9463 30.8992 15.7154 30.8412 15.6087 30.6629C15.5017 30.4848 15.5597 30.2536 15.7376 30.1467L20.0949 27.5327C20.2471 27.4413 20.3548 27.2964 20.3977 27.1251C20.4448 26.9371 20.409 26.7449 20.2973 26.5837C20.1037 26.3036 19.6895 26.2291 19.3754 26.4179L12.7132 30.4146C12.5674 30.5017 12.3806 30.4805 12.2583 30.3625C12.1358 30.2442 12.1082 30.0583 12.1907 29.9097L13.576 27.4137C13.715 27.1642 13.7096 26.8561 13.5614 26.6092L13.5615 26.6091Z" fill="#103E13"/>
<path d="M39.6174 36.6581C38.923 37.8161 37.7811 38.6086 36.4017 38.8904C35.0345 39.1691 33.5967 38.9121 32.3522 38.1659L25.6852 34.1665C25.3608 33.9719 25.1313 33.6627 25.0395 33.2957C24.9483 32.9293 25.0053 32.5488 25.1997 32.2246C25.321 32.022 25.4911 31.8623 25.6883 31.7442L25.6864 31.7431C25.362 31.5485 25.1325 31.2393 25.0411 30.8727C24.9492 30.5062 25.0063 30.1254 25.2009 29.8008C25.3262 29.5923 25.4979 29.4293 25.694 29.3136C25.4094 29.1178 25.2044 28.8334 25.1201 28.496C25.0282 28.1292 25.0852 27.7487 25.2798 27.4245C25.4742 27.1001 25.7835 26.8709 26.1501 26.7792C26.2646 26.7505 26.3808 26.7363 26.4957 26.7363C26.7214 26.7366 26.9429 26.7938 27.1464 26.9003C27.1589 26.6367 27.2374 26.3778 27.3915 26.1556C27.8139 25.5461 28.6602 25.3774 29.3194 25.773L34.7789 29.0478L34.0752 27.7802C33.8052 27.2963 33.8151 26.6993 34.1013 26.222C34.2408 25.9897 34.4401 25.7967 34.6783 25.6632C34.8741 25.5548 35.0861 25.5034 35.2953 25.5034C35.7446 25.5037 36.1809 25.7407 36.4132 26.1603C37.2227 27.6189 38.7503 30.3697 38.8578 30.5618C38.8806 30.595 38.9496 30.6939 39.0088 30.778C39.0651 30.8579 39.1259 30.9342 39.1888 31.0101C40.552 32.6626 40.7164 34.8265 39.6173 36.6581L39.6174 36.6581ZM38.6083 31.4896C38.5334 31.3989 38.4599 31.3063 38.393 31.2109C38.1894 30.922 38.1843 30.9145 38.1689 30.8389C37.931 30.4452 37.3505 29.4001 35.7548 26.5253C35.6149 26.2729 35.2968 26.1808 35.0435 26.3208C34.9189 26.3905 34.8188 26.4878 34.7457 26.6096C34.5978 26.8563 34.5921 27.1645 34.7318 27.4147L36.1167 29.9099C36.1994 30.0588 36.1718 30.2444 36.0495 30.3627C35.9275 30.4812 35.7409 30.5019 35.5944 30.4148L28.9322 26.4181C28.6181 26.2298 28.2042 26.3036 28.01 26.5839C27.8984 26.7451 27.8628 26.9373 27.9094 27.1251C27.9523 27.2966 28.06 27.4413 28.2124 27.5327C28.2129 27.5329 28.2131 27.5334 28.2136 27.5336L32.5696 30.1469C32.7477 30.2538 32.8054 30.4847 32.6985 30.6631C32.5915 30.8409 32.3608 30.8991 32.1823 30.7919L26.8344 27.5838C26.6827 27.4929 26.5041 27.466 26.3326 27.5091C26.1606 27.552 26.016 27.6595 25.9248 27.8119C25.8334 27.9638 25.807 28.1422 25.8494 28.3137C25.8923 28.4852 25.9999 28.6301 26.1521 28.7215L27.1928 29.3456L31.4997 31.9297C31.6778 32.0367 31.7356 32.2675 31.6286 32.4459C31.5216 32.6238 31.291 32.6817 31.1124 32.5748L26.7555 29.9608C26.4422 29.7723 26.0341 29.8746 25.8456 30.1884C25.7542 30.3406 25.7278 30.5189 25.7702 30.6904C25.8131 30.862 25.9208 31.0066 26.0732 31.0983L27.1414 31.7391L30.4301 33.7122C30.6082 33.8192 30.6659 34.0501 30.559 34.2284C30.452 34.4063 30.2214 34.4647 30.0428 34.3573L26.7541 32.3841C26.6024 32.2932 26.4245 32.2663 26.252 32.3095C26.0805 32.3523 25.9354 32.4598 25.8442 32.6117C25.753 32.7639 25.7264 32.9425 25.7688 33.1138C25.8117 33.2853 25.9194 33.43 26.0718 33.5216L32.7388 37.5211C33.8207 38.1702 35.0684 38.3949 36.2507 38.1537C37.4206 37.9148 38.3871 37.2464 38.9718 36.2715C39.9168 34.6972 39.7808 32.9095 38.6087 31.4895L38.6083 31.4896Z" fill="#103E13"/>
</svg>
